<svg width="1080" height="1920" viewBox="0 0 1080 1920" xmlns="http://www.w3.org/2000/svg"><mask id="satori_om-id"><rect x="0" y="0" width="1080" height="1920" fill="#fff"/></mask><mask id="satori_om-id-0"><rect x="0" y="0" width="1080" height="1920" fill="#fff"/></mask><mask id="satori_om-id-0-0"><rect x="0" y="1052" width="1080" height="868" fill="#fff"/></mask><rect x="422" y="1364" width="133.349609375" height="55.859375" fill="yellow"/><g  ><path fill="white" d="M259.6 1297.5L259.6 1297.5Q257.7 1297.5 256.2 1297.0Q254.7 1296.4 253.6 1295.4Q252.6 1294.4 252.0 1292.9Q251.5 1291.4 251.5 1289.5L251.5 1289.5Q251.5 1287.2 252.3 1285.6Q253.1 1284.0 254.5 1283.0Q255.9 1282.0 257.8 1281.6Q259.7 1281.1 261.9 1281.1L261.9 1281.1L267.6 1281.0L267.6 1279.6Q267.6 1278.2 267.3 1277.2Q267.1 1276.3 266.6 1275.7Q266.1 1275.1 265.4 1274.8Q264.6 1274.5 263.7 1274.5L263.7 1274.5Q262.9 1274.5 262.2 1274.7Q261.5 1274.9 261.0 1275.3Q260.5 1275.7 260.2 1276.5Q259.9 1277.2 259.8 1278.3L259.8 1278.3L252.7 1277.9Q253.0 1276.2 253.7 1274.8Q254.5 1273.3 255.9 1272.3Q257.3 1271.2 259.3 1270.7Q261.3 1270.1 264.0 1270.1L264.0 1270.1Q266.5 1270.1 268.4 1270.7Q270.3 1271.3 271.7 1272.5Q273.0 1273.7 273.7 1275.5Q274.4 1277.2 274.4 1279.6L274.4 1279.6L274.4 1289.2Q274.4 1290.1 274.5 1290.8Q274.6 1291.6 274.8 1292.1Q275.1 1292.6 275.5 1292.8Q275.9 1293.1 276.6 1293.1L276.6 1293.1Q277.4 1293.1 278.1 1292.9L278.1 1292.9L278.1 1296.7Q277.5 1296.8 277.0 1296.9Q276.5 1297.0 276.0 1297.1Q275.6 1297.2 275.0 1297.2Q274.5 1297.3 273.7 1297.3L273.7 1297.3Q271.1 1297.3 269.9 1296.0Q268.7 1294.8 268.4 1292.3L268.4 1292.3L268.3 1292.3Q266.9 1294.8 264.8 1296.1Q262.6 1297.5 259.6 1297.5ZM267.6 1286.1L267.6 1284.8L264.1 1284.8Q263.0 1284.9 262.0 1285.0Q261.0 1285.1 260.2 1285.6Q259.5 1286.0 259.1 1286.8Q258.6 1287.6 258.6 1289.0L258.6 1289.0Q258.6 1290.9 259.5 1291.8Q260.4 1292.7 261.8 1292.7L261.8 1292.7Q263.1 1292.7 264.2 1292.1Q265.3 1291.6 266.0 1290.7Q266.7 1289.7 267.2 1288.6Q267.6 1287.4 267.6 1286.1L267.6 1286.1ZM303.6 1289.3L303.6 1289.3Q303.6 1291.2 302.8 1292.7Q302.0 1294.2 300.5 1295.3Q299.0 1296.3 296.8 1296.9Q294.6 1297.5 291.7 1297.5L291.7 1297.5Q289.2 1297.5 287.2 1297.1Q285.2 1296.8 283.7 1295.9Q282.1 1295.1 281.1 1293.7Q280.1 1292.4 279.6 1290.4L279.6 1290.4L285.6 1289.5Q285.9 1290.6 286.4 1291.3Q286.9 1292.0 287.7 1292.3Q288.4 1292.7 289.4 1292.8Q290.5 1292.9 291.7 1292.9L291.7 1292.9Q292.9 1292.9 293.9 1292.8Q294.9 1292.7 295.7 1292.3Q296.4 1292.0 296.9 1291.4Q297.3 1290.8 297.3 1289.9L297.3 1289.9Q297.3 1288.9 296.7 1288.3Q296.1 1287.7 295.0 1287.3Q294.0 1286.9 292.6 1286.7Q291.2 1286.4 289.6 1286.0L289.6 1286.0Q287.9 1285.6 286.3 1285.1Q284.7 1284.6 283.4 1283.7Q282.2 1282.9 281.4 1281.5Q280.6 1280.2 280.6 1278.1L280.6 1278.1Q280.6 1276.2 281.3 1274.7Q282.1 1273.2 283.5 1272.2Q284.9 1271.2 287.0 1270.6Q289.1 1270.1 291.8 1270.1L291.8 1270.1Q293.9 1270.1 295.8 1270.5Q297.7 1270.9 299.1 1271.7Q300.6 1272.6 301.6 1274.0Q302.6 1275.3 303.0 1277.2L303.0 1277.2L296.9 1277.8Q296.7 1276.9 296.3 1276.3Q295.8 1275.6 295.2 1275.3Q294.5 1274.9 293.7 1274.8Q292.8 1274.6 291.8 1274.6L291.8 1274.6Q289.4 1274.6 288.1 1275.3Q286.9 1275.9 286.9 1277.3L286.9 1277.3Q286.9 1278.3 287.4 1278.8Q287.9 1279.3 288.8 1279.7Q289.7 1280.0 291.0 1280.3Q292.3 1280.5 293.8 1280.9L293.8 1280.9Q295.6 1281.3 297.4 1281.8Q299.1 1282.4 300.5 1283.3Q301.9 1284.2 302.7 1285.6Q303.6 1287.1 303.6 1289.3ZM332.9 1297L326.2 1297Q326.2 1296.8 326.1 1296.3Q326.0 1295.8 326.0 1295.2Q325.9 1294.5 325.9 1293.9Q325.9 1293.2 325.9 1292.7L325.9 1292.7L325.8 1292.7Q324.6 1295.3 322.4 1296.4Q320.3 1297.5 317.3 1297.5L317.3 1297.5Q314.8 1297.5 313.0 1296.5Q311.2 1295.4 310.0 1293.6Q308.8 1291.8 308.2 1289.3Q307.7 1286.8 307.7 1283.8L307.7 1283.8Q307.7 1280.8 308.3 1278.3Q308.9 1275.8 310.1 1274.0Q311.4 1272.1 313.3 1271.1Q315.2 1270.1 317.8 1270.1L317.8 1270.1Q319.1 1270.1 320.3 1270.4Q321.5 1270.6 322.5 1271.2Q323.6 1271.8 324.4 1272.6Q325.2 1273.5 325.8 1274.8L325.8 1274.8L325.9 1274.8Q325.9 1274.5 325.8 1274.0Q325.8 1273.6 325.8 1273.0Q325.8 1272.3 325.8 1271.7Q325.8 1271.0 325.8 1270.4L325.8 1270.4L325.8 1260.8L332.7 1260.8L332.7 1291.2Q332.7 1293.2 332.7 1294.7Q332.8 1296.2 332.9 1297L332.9 1297ZM325.9 1283.6L325.9 1283.6Q325.9 1281.0 325.4 1279.3Q324.9 1277.6 324.1 1276.6Q323.3 1275.6 322.3 1275.2Q321.3 1274.8 320.3 1274.8L320.3 1274.8Q318.9 1274.8 317.9 1275.3Q316.9 1275.8 316.2 1276.9Q315.5 1278.0 315.2 1279.7Q314.8 1281.4 314.8 1283.8L314.8 1283.8Q314.8 1292.8 320.2 1292.8L320.2 1292.8Q321.2 1292.8 322.3 1292.4Q323.3 1291.9 324.1 1290.9Q324.9 1289.8 325.4 1288.1Q325.9 1286.3 325.9 1283.6ZM352.9 1275.2L347.7 1275.2L347.7 1297L340.9 1297L340.9 1275.2L337.0 1275.2L337.0 1270.6L340.9 1270.6L340.9 1267.8Q340.9 1266.3 341.2 1265.0Q341.6 1263.7 342.5 1262.8Q343.4 1261.8 344.8 1261.3Q346.3 1260.8 348.6 1260.8L348.6 1260.8Q349.7 1260.8 350.9 1260.9Q352.0 1261.0 352.9 1261.2L352.9 1261.2L352.9 1265.6Q352.5 1265.5 351.9 1265.4Q351.4 1265.4 350.9 1265.4L350.9 1265.4Q350.0 1265.4 349.3 1265.6Q348.7 1265.8 348.4 1266.1Q348.0 1266.5 347.9 1267.1Q347.7 1267.7 347.7 1268.5L347.7 1268.5L347.7 1270.6L352.9 1270.6L352.9 1275.2Z M375.6 1297.5L375.6 1297.5Q373.7 1297.5 372.2 1297.0Q370.7 1296.4 369.6 1295.4Q368.6 1294.4 368.0 1292.9Q367.5 1291.4 367.5 1289.5L367.5 1289.5Q367.5 1287.2 368.3 1285.6Q369.1 1284.0 370.5 1283.0Q371.9 1282.0 373.8 1281.6Q375.7 1281.1 377.9 1281.1L377.9 1281.1L383.6 1281.0L383.6 1279.6Q383.6 1278.2 383.3 1277.2Q383.1 1276.3 382.6 1275.7Q382.1 1275.1 381.4 1274.8Q380.6 1274.5 379.7 1274.5L379.7 1274.5Q378.9 1274.5 378.2 1274.7Q377.5 1274.9 377.0 1275.3Q376.5 1275.7 376.2 1276.5Q375.9 1277.2 375.8 1278.3L375.8 1278.3L368.7 1277.9Q369.0 1276.2 369.7 1274.8Q370.5 1273.3 371.9 1272.3Q373.3 1271.2 375.3 1270.7Q377.3 1270.1 380.0 1270.1L380.0 1270.1Q382.5 1270.1 384.4 1270.7Q386.3 1271.3 387.7 1272.5Q389.0 1273.7 389.7 1275.5Q390.4 1277.2 390.4 1279.6L390.4 1279.6L390.4 1289.2Q390.4 1290.1 390.5 1290.8Q390.6 1291.6 390.8 1292.1Q391.1 1292.6 391.5 1292.8Q391.9 1293.1 392.6 1293.1L392.6 1293.1Q393.4 1293.1 394.1 1292.9L394.1 1292.9L394.1 1296.7Q393.5 1296.8 393.0 1296.9Q392.5 1297.0 392.0 1297.1Q391.6 1297.2 391.0 1297.2Q390.5 1297.3 389.7 1297.3L389.7 1297.3Q387.1 1297.3 385.9 1296.0Q384.7 1294.8 384.4 1292.3L384.4 1292.3L384.3 1292.3Q382.9 1294.8 380.8 1296.1Q378.6 1297.5 375.6 1297.5ZM383.6 1286.1L383.6 1284.8L380.1 1284.8Q379.0 1284.9 378.0 1285.0Q377.0 1285.1 376.2 1285.6Q375.5 1286.0 375.1 1286.8Q374.6 1287.6 374.6 1289.0L374.6 1289.0Q374.6 1290.9 375.5 1291.8Q376.4 1292.7 377.8 1292.7L377.8 1292.7Q379.1 1292.7 380.2 1292.1Q381.3 1291.6 382.0 1290.7Q382.7 1289.7 383.2 1288.6Q383.6 1287.4 383.6 1286.1L383.6 1286.1ZM419.6 1289.3L419.6 1289.3Q419.6 1291.2 418.8 1292.7Q418.0 1294.2 416.5 1295.3Q415.0 1296.3 412.8 1296.9Q410.6 1297.5 407.7 1297.5L407.7 1297.5Q405.2 1297.5 403.2 1297.1Q401.2 1296.8 399.7 1295.9Q398.1 1295.1 397.1 1293.7Q396.1 1292.4 395.6 1290.4L395.6 1290.4L401.6 1289.5Q401.9 1290.6 402.4 1291.3Q402.9 1292.0 403.7 1292.3Q404.4 1292.7 405.4 1292.8Q406.5 1292.9 407.7 1292.9L407.7 1292.9Q408.9 1292.9 409.9 1292.8Q410.9 1292.7 411.7 1292.3Q412.4 1292.0 412.9 1291.4Q413.3 1290.8 413.3 1289.9L413.3 1289.9Q413.3 1288.9 412.7 1288.3Q412.1 1287.7 411.0 1287.3Q410.0 1286.9 408.6 1286.7Q407.2 1286.4 405.6 1286.0L405.6 1286.0Q403.9 1285.6 402.3 1285.1Q400.7 1284.6 399.4 1283.7Q398.2 1282.9 397.4 1281.5Q396.6 1280.2 396.6 1278.1L396.6 1278.1Q396.6 1276.2 397.3 1274.7Q398.1 1273.2 399.5 1272.2Q400.9 1271.2 403.0 1270.6Q405.1 1270.1 407.8 1270.1L407.8 1270.1Q409.9 1270.1 411.8 1270.5Q413.7 1270.9 415.1 1271.7Q416.6 1272.6 417.6 1274.0Q418.6 1275.3 419.0 1277.2L419.0 1277.2L412.9 1277.8Q412.7 1276.9 412.3 1276.3Q411.8 1275.6 411.2 1275.3Q410.5 1274.9 409.7 1274.8Q408.8 1274.6 407.8 1274.6L407.8 1274.6Q405.4 1274.6 404.1 1275.3Q402.9 1275.9 402.9 1277.3L402.9 1277.3Q402.9 1278.3 403.4 1278.8Q403.9 1279.3 404.8 1279.7Q405.7 1280.0 407.0 1280.3Q408.3 1280.5 409.8 1280.9L409.8 1280.9Q411.6 1281.3 413.4 1281.8Q415.1 1282.4 416.5 1283.3Q417.9 1284.2 418.7 1285.6Q419.6 1287.1 419.6 1289.3ZM448.9 1297L442.2 1297Q442.2 1296.8 442.1 1296.3Q442.0 1295.8 442.0 1295.2Q441.9 1294.5 441.9 1293.9Q441.9 1293.2 441.9 1292.7L441.9 1292.7L441.8 1292.7Q440.6 1295.3 438.4 1296.4Q436.3 1297.5 433.3 1297.5L433.3 1297.5Q430.8 1297.5 429.0 1296.5Q427.2 1295.4 426.0 1293.6Q424.8 1291.8 424.2 1289.3Q423.7 1286.8 423.7 1283.8L423.7 1283.8Q423.7 1280.8 424.3 1278.3Q424.9 1275.8 426.1 1274.0Q427.4 1272.1 429.3 1271.1Q431.2 1270.1 433.8 1270.1L433.8 1270.1Q435.1 1270.1 436.3 1270.4Q437.5 1270.6 438.5 1271.2Q439.6 1271.8 440.4 1272.6Q441.2 1273.5 441.8 1274.8L441.8 1274.8L441.9 1274.8Q441.9 1274.5 441.8 1274.0Q441.8 1273.6 441.8 1273.0Q441.8 1272.3 441.8 1271.7Q441.8 1271.0 441.8 1270.4L441.8 1270.4L441.8 1260.8L448.7 1260.8L448.7 1291.2Q448.7 1293.2 448.7 1294.7Q448.8 1296.2 448.9 1297L448.9 1297ZM441.9 1283.6L441.9 1283.6Q441.9 1281.0 441.4 1279.3Q440.9 1277.6 440.1 1276.6Q439.3 1275.6 438.3 1275.2Q437.3 1274.8 436.3 1274.8L436.3 1274.8Q434.9 1274.8 433.9 1275.3Q432.9 1275.8 432.2 1276.9Q431.5 1278.0 431.2 1279.7Q430.8 1281.4 430.8 1283.8L430.8 1283.8Q430.8 1292.8 436.2 1292.8L436.2 1292.8Q437.2 1292.8 438.3 1292.4Q439.3 1291.9 440.1 1290.9Q440.9 1289.8 441.4 1288.1Q441.9 1286.3 441.9 1283.6ZM468.9 1275.2L463.7 1275.2L463.7 1297L456.9 1297L456.9 1275.2L453.0 1275.2L453.0 1270.6L456.9 1270.6L456.9 1267.8Q456.9 1266.3 457.2 1265.0Q457.6 1263.7 458.5 1262.8Q459.4 1261.8 460.8 1261.3Q462.3 1260.8 464.6 1260.8L464.6 1260.8Q465.7 1260.8 466.9 1260.9Q468.0 1261.0 468.9 1261.2L468.9 1261.2L468.9 1265.6Q468.5 1265.5 467.9 1265.4Q467.4 1265.4 466.9 1265.4L466.9 1265.4Q466.0 1265.4 465.3 1265.6Q464.7 1265.8 464.4 1266.1Q464.0 1266.5 463.9 1267.1Q463.7 1267.7 463.7 1268.5L463.7 1268.5L463.7 1270.6L468.9 1270.6L468.9 1275.2ZM478.4 1297.5L478.4 1297.5Q476.5 1297.5 475.0 1297.0Q473.5 1296.4 472.4 1295.4Q471.4 1294.4 470.8 1292.9Q470.3 1291.4 470.3 1289.5L470.3 1289.5Q470.3 1287.2 471.1 1285.6Q471.9 1284.0 473.3 1283.0Q474.7 1282.0 476.6 1281.6Q478.5 1281.1 480.7 1281.1L480.7 1281.1L486.4 1281.0L486.4 1279.6Q486.4 1278.2 486.1 1277.2Q485.9 1276.3 485.4 1275.7Q484.9 1275.1 484.2 1274.8Q483.5 1274.5 482.5 1274.5L482.5 1274.5Q481.7 1274.5 481.0 1274.7Q480.3 1274.9 479.8 1275.3Q479.4 1275.7 479.0 1276.5Q478.7 1277.2 478.6 1278.3L478.6 1278.3L471.5 1277.9Q471.8 1276.2 472.5 1274.8Q473.3 1273.3 474.7 1272.3Q476.1 1271.2 478.1 1270.7Q480.1 1270.1 482.8 1270.1L482.8 1270.1Q485.3 1270.1 487.2 1270.7Q489.1 1271.3 490.5 1272.5Q491.8 1273.7 492.5 1275.5Q493.2 1277.2 493.2 1279.6L493.2 1279.6L493.2 1289.2Q493.2 1290.1 493.3 1290.8Q493.4 1291.6 493.6 1292.1Q493.9 1292.6 494.3 1292.8Q494.7 1293.1 495.4 1293.1L495.4 1293.1Q496.2 1293.1 496.9 1292.9L496.9 1292.9L496.9 1296.7Q496.3 1296.8 495.8 1296.9Q495.3 1297.0 494.9 1297.1Q494.4 1297.2 493.8 1297.2Q493.3 1297.3 492.5 1297.3L492.5 1297.3Q490.0 1297.3 488.7 1296.0Q487.5 1294.8 487.2 1292.3L487.2 1292.3L487.1 1292.3Q485.7 1294.8 483.6 1296.1Q481.5 1297.5 478.4 1297.5ZM486.4 1286.1L486.4 1284.8L482.9 1284.8Q481.8 1284.9 480.8 1285.0Q479.8 1285.1 479.0 1285.6Q478.3 1286.0 477.9 1286.8Q477.4 1287.6 477.4 1289.0L477.4 1289.0Q477.4 1290.9 478.3 1291.8Q479.2 1292.7 480.6 1292.7L480.6 1292.7Q481.9 1292.7 483.0 1292.1Q484.1 1291.6 484.8 1290.7Q485.6 1289.7 486.0 1288.6Q486.4 1287.4 486.4 1286.1L486.4 1286.1ZM522.4 1289.3L522.4 1289.3Q522.4 1291.2 521.6 1292.7Q520.8 1294.2 519.3 1295.3Q517.8 1296.3 515.6 1296.9Q513.4 1297.5 510.6 1297.5L510.6 1297.5Q508.0 1297.5 506.0 1297.1Q504.0 1296.8 502.5 1295.9Q500.9 1295.1 499.9 1293.7Q498.9 1292.4 498.4 1290.4L498.4 1290.4L504.4 1289.5Q504.7 1290.6 505.2 1291.3Q505.7 1292.0 506.5 1292.3Q507.2 1292.7 508.2 1292.8Q509.3 1292.9 510.6 1292.9L510.6 1292.9Q511.7 1292.9 512.7 1292.8Q513.8 1292.7 514.5 1292.3Q515.2 1292.0 515.7 1291.4Q516.1 1290.8 516.1 1289.9L516.1 1289.9Q516.1 1288.9 515.5 1288.3Q514.9 1287.7 513.8 1287.3Q512.8 1286.9 511.4 1286.7Q510.0 1286.4 508.4 1286.0L508.4 1286.0Q506.7 1285.6 505.1 1285.1Q503.5 1284.6 502.3 1283.7Q501.0 1282.9 500.2 1281.5Q499.4 1280.2 499.4 1278.1L499.4 1278.1Q499.4 1276.2 500.2 1274.7Q500.9 1273.2 502.3 1272.2Q503.7 1271.2 505.8 1270.6Q507.9 1270.1 510.6 1270.1L510.6 1270.1Q512.8 1270.1 514.6 1270.5Q516.5 1270.9 517.9 1271.7Q519.4 1272.6 520.4 1274.0Q521.4 1275.3 521.8 1277.2L521.8 1277.2L515.7 1277.8Q515.5 1276.9 515.1 1276.3Q514.6 1275.6 514.0 1275.3Q513.3 1274.9 512.5 1274.8Q511.6 1274.6 510.6 1274.6L510.6 1274.6Q508.2 1274.6 506.9 1275.3Q505.7 1275.9 505.7 1277.3L505.7 1277.3Q505.7 1278.3 506.2 1278.8Q506.7 1279.3 507.6 1279.7Q508.6 1280.0 509.8 1280.3Q511.1 1280.5 512.6 1280.9L512.6 1280.9Q514.4 1281.3 516.2 1281.8Q517.9 1282.4 519.3 1283.3Q520.7 1284.2 521.5 1285.6Q522.4 1287.1 522.4 1289.3ZM551.7 1297L545.0 1297Q545.0 1296.8 544.9 1296.3Q544.9 1295.8 544.8 1295.2Q544.7 1294.5 544.7 1293.9Q544.7 1293.2 544.7 1292.7L544.7 1292.7L544.6 1292.7Q543.4 1295.3 541.2 1296.4Q539.1 1297.5 536.1 1297.5L536.1 1297.5Q533.6 1297.5 531.8 1296.5Q530.0 1295.4 528.8 1293.6Q527.6 1291.8 527.0 1289.3Q526.5 1286.8 526.5 1283.8L526.5 1283.8Q526.5 1280.8 527.1 1278.3Q527.7 1275.8 528.9 1274.0Q530.2 1272.1 532.1 1271.1Q534.0 1270.1 536.6 1270.1L536.6 1270.1Q537.9 1270.1 539.1 1270.4Q540.3 1270.6 541.3 1271.2Q542.4 1271.8 543.2 1272.6Q544.0 1273.5 544.6 1274.8L544.6 1274.8L544.7 1274.8Q544.7 1274.5 544.6 1274.0Q544.6 1273.6 544.6 1273.0Q544.6 1272.3 544.6 1271.7Q544.6 1271.0 544.6 1270.4L544.6 1270.4L544.6 1260.8L551.5 1260.8L551.5 1291.2Q551.5 1293.2 551.5 1294.7Q551.6 1296.2 551.7 1297L551.7 1297ZM544.7 1283.6L544.7 1283.6Q544.7 1281.0 544.2 1279.3Q543.7 1277.6 542.9 1276.6Q542.1 1275.6 541.1 1275.2Q540.1 1274.8 539.1 1274.8L539.1 1274.8Q537.8 1274.8 536.7 1275.3Q535.7 1275.8 535.0 1276.9Q534.3 1278.0 534.0 1279.7Q533.6 1281.4 533.6 1283.8L533.6 1283.8Q533.6 1292.8 539.0 1292.8L539.0 1292.8Q540.0 1292.8 541.1 1292.4Q542.1 1291.9 542.9 1290.9Q543.7 1289.8 544.2 1288.1Q544.7 1286.3 544.7 1283.6ZM571.7 1275.2L566.5 1275.2L566.5 1297L559.7 1297L559.7 1275.2L555.8 1275.2L555.8 1270.6L559.7 1270.6L559.7 1267.8Q559.7 1266.3 560.0 1265.0Q560.4 1263.7 561.3 1262.8Q562.2 1261.8 563.7 1261.3Q565.1 1260.8 567.4 1260.8L567.4 1260.8Q568.5 1260.8 569.7 1260.9Q570.8 1261.0 571.7 1261.2L571.7 1261.2L571.7 1265.6Q571.3 1265.5 570.7 1265.4Q570.2 1265.4 569.7 1265.4L569.7 1265.4Q568.8 1265.4 568.1 1265.6Q567.5 1265.8 567.2 1266.1Q566.8 1266.5 566.7 1267.1Q566.5 1267.7 566.5 1268.5L566.5 1268.5L566.5 1270.6L571.7 1270.6L571.7 1275.2Z M595.6 1297.5L595.6 1297.5Q593.7 1297.5 592.2 1297.0Q590.7 1296.4 589.6 1295.4Q588.6 1294.4 588.0 1292.9Q587.5 1291.4 587.5 1289.5L587.5 1289.5Q587.5 1287.2 588.3 1285.6Q589.1 1284.0 590.5 1283.0Q591.9 1282.0 593.8 1281.6Q595.7 1281.1 597.9 1281.1L597.9 1281.1L603.6 1281.0L603.6 1279.6Q603.6 1278.2 603.3 1277.2Q603.1 1276.3 602.6 1275.7Q602.1 1275.1 601.4 1274.8Q600.6 1274.5 599.7 1274.5L599.7 1274.5Q598.9 1274.5 598.2 1274.7Q597.5 1274.9 597.0 1275.3Q596.5 1275.7 596.2 1276.5Q595.9 1277.2 595.8 1278.3L595.8 1278.3L588.7 1277.9Q589.0 1276.2 589.7 1274.8Q590.5 1273.3 591.9 1272.3Q593.3 1271.2 595.3 1270.7Q597.3 1270.1 600.0 1270.1L600.0 1270.1Q602.5 1270.1 604.4 1270.7Q606.3 1271.3 607.7 1272.5Q609.0 1273.7 609.7 1275.5Q610.4 1277.2 610.4 1279.6L610.4 1279.6L610.4 1289.2Q610.4 1290.1 610.5 1290.8Q610.6 1291.6 610.8 1292.1Q611.1 1292.6 611.5 1292.8Q611.9 1293.1 612.6 1293.1L612.6 1293.1Q613.4 1293.1 614.1 1292.9L614.1 1292.9L614.1 1296.7Q613.5 1296.8 613.0 1296.9Q612.5 1297.0 612.0 1297.1Q611.6 1297.2 611.0 1297.2Q610.5 1297.3 609.7 1297.3L609.7 1297.3Q607.1 1297.3 605.9 1296.0Q604.7 1294.8 604.4 1292.3L604.4 1292.3L604.3 1292.3Q602.9 1294.8 600.8 1296.1Q598.6 1297.5 595.6 1297.5ZM603.6 1286.1L603.6 1284.8L600.1 1284.8Q599.0 1284.9 598.0 1285.0Q597.0 1285.1 596.2 1285.6Q595.5 1286.0 595.1 1286.8Q594.6 1287.6 594.6 1289.0L594.6 1289.0Q594.6 1290.9 595.5 1291.8Q596.4 1292.7 597.8 1292.7L597.8 1292.7Q599.1 1292.7 600.2 1292.1Q601.3 1291.6 602.0 1290.7Q602.7 1289.7 603.2 1288.6Q603.6 1287.4 603.6 1286.1L603.6 1286.1ZM639.6 1289.3L639.6 1289.3Q639.6 1291.2 638.8 1292.7Q638.0 1294.2 636.5 1295.3Q635.0 1296.3 632.8 1296.9Q630.6 1297.5 627.7 1297.5L627.7 1297.5Q625.2 1297.5 623.2 1297.1Q621.2 1296.8 619.7 1295.9Q618.1 1295.1 617.1 1293.7Q616.1 1292.4 615.6 1290.4L615.6 1290.4L621.6 1289.5Q621.9 1290.6 622.4 1291.3Q622.9 1292.0 623.7 1292.3Q624.4 1292.7 625.4 1292.8Q626.5 1292.9 627.7 1292.9L627.7 1292.9Q628.9 1292.9 629.9 1292.8Q630.9 1292.7 631.7 1292.3Q632.4 1292.0 632.9 1291.4Q633.3 1290.8 633.3 1289.9L633.3 1289.9Q633.3 1288.9 632.7 1288.3Q632.1 1287.7 631.0 1287.3Q630.0 1286.9 628.6 1286.7Q627.2 1286.4 625.6 1286.0L625.6 1286.0Q623.9 1285.6 622.3 1285.1Q620.7 1284.6 619.4 1283.7Q618.2 1282.9 617.4 1281.5Q616.6 1280.2 616.6 1278.1L616.6 1278.1Q616.6 1276.2 617.3 1274.7Q618.1 1273.2 619.5 1272.2Q620.9 1271.2 623.0 1270.6Q625.1 1270.1 627.8 1270.1L627.8 1270.1Q629.9 1270.1 631.8 1270.5Q633.7 1270.9 635.1 1271.7Q636.6 1272.6 637.6 1274.0Q638.6 1275.3 639.0 1277.2L639.0 1277.2L632.9 1277.8Q632.7 1276.9 632.3 1276.3Q631.8 1275.6 631.2 1275.3Q630.5 1274.9 629.7 1274.8Q628.8 1274.6 627.8 1274.6L627.8 1274.6Q625.4 1274.6 624.1 1275.3Q622.9 1275.9 622.9 1277.3L622.9 1277.3Q622.9 1278.3 623.4 1278.8Q623.9 1279.3 624.8 1279.7Q625.7 1280.0 627.0 1280.3Q628.3 1280.5 629.8 1280.9L629.8 1280.9Q631.6 1281.3 633.4 1281.8Q635.1 1282.4 636.5 1283.3Q637.9 1284.2 638.7 1285.6Q639.6 1287.1 639.6 1289.3ZM668.9 1297L662.2 1297Q662.2 1296.8 662.1 1296.3Q662.0 1295.8 662.0 1295.2Q661.9 1294.5 661.9 1293.9Q661.9 1293.2 661.9 1292.7L661.9 1292.7L661.8 1292.7Q660.6 1295.3 658.4 1296.4Q656.3 1297.5 653.3 1297.5L653.3 1297.5Q650.8 1297.5 649.0 1296.5Q647.2 1295.4 646.0 1293.6Q644.8 1291.8 644.2 1289.3Q643.7 1286.8 643.7 1283.8L643.7 1283.8Q643.7 1280.8 644.3 1278.3Q644.9 1275.8 646.1 1274.0Q647.4 1272.1 649.3 1271.1Q651.2 1270.1 653.8 1270.1L653.8 1270.1Q655.1 1270.1 656.3 1270.4Q657.5 1270.6 658.5 1271.2Q659.6 1271.8 660.4 1272.6Q661.2 1273.5 661.8 1274.8L661.8 1274.8L661.9 1274.8Q661.9 1274.5 661.8 1274.0Q661.8 1273.6 661.8 1273.0Q661.8 1272.3 661.8 1271.7Q661.8 1271.0 661.8 1270.4L661.8 1270.4L661.8 1260.8L668.7 1260.8L668.7 1291.2Q668.7 1293.2 668.7 1294.7Q668.8 1296.2 668.9 1297L668.9 1297ZM661.9 1283.6L661.9 1283.6Q661.9 1281.0 661.4 1279.3Q660.9 1277.6 660.1 1276.6Q659.3 1275.6 658.3 1275.2Q657.3 1274.8 656.3 1274.8L656.3 1274.8Q654.9 1274.8 653.9 1275.3Q652.9 1275.8 652.2 1276.9Q651.5 1278.0 651.2 1279.7Q650.8 1281.4 650.8 1283.8L650.8 1283.8Q650.8 1292.8 656.2 1292.8L656.2 1292.8Q657.2 1292.8 658.3 1292.4Q659.3 1291.9 660.1 1290.9Q660.9 1289.8 661.4 1288.1Q661.9 1286.3 661.9 1283.6ZM688.9 1275.2L683.7 1275.2L683.7 1297L676.9 1297L676.9 1275.2L673.0 1275.2L673.0 1270.6L676.9 1270.6L676.9 1267.8Q676.9 1266.3 677.2 1265.0Q677.6 1263.7 678.5 1262.8Q679.4 1261.8 680.8 1261.3Q682.3 1260.8 684.6 1260.8L684.6 1260.8Q685.7 1260.8 686.9 1260.9Q688.0 1261.0 688.9 1261.2L688.9 1261.2L688.9 1265.6Q688.5 1265.5 687.9 1265.4Q687.4 1265.4 686.9 1265.4L686.9 1265.4Q686.0 1265.4 685.3 1265.6Q684.7 1265.8 684.4 1266.1Q684.0 1266.5 683.9 1267.1Q683.7 1267.7 683.7 1268.5L683.7 1268.5L683.7 1270.6L688.9 1270.6L688.9 1275.2Z M712.6 1297.5L712.6 1297.5Q710.7 1297.5 709.2 1297.0Q707.7 1296.4 706.6 1295.4Q705.6 1294.4 705.0 1292.9Q704.5 1291.4 704.5 1289.5L704.5 1289.5Q704.5 1287.2 705.3 1285.6Q706.1 1284.0 707.5 1283.0Q708.9 1282.0 710.8 1281.6Q712.7 1281.1 714.9 1281.1L714.9 1281.1L720.6 1281.0L720.6 1279.6Q720.6 1278.2 720.3 1277.2Q720.1 1276.3 719.6 1275.7Q719.1 1275.1 718.4 1274.8Q717.6 1274.5 716.7 1274.5L716.7 1274.5Q715.9 1274.5 715.2 1274.7Q714.5 1274.9 714.0 1275.3Q713.5 1275.7 713.2 1276.5Q712.9 1277.2 712.8 1278.3L712.8 1278.3L705.7 1277.9Q706.0 1276.2 706.7 1274.8Q707.5 1273.3 708.9 1272.3Q710.3 1271.2 712.3 1270.7Q714.3 1270.1 717.0 1270.1L717.0 1270.1Q719.5 1270.1 721.4 1270.7Q723.3 1271.3 724.7 1272.5Q726.0 1273.7 726.7 1275.5Q727.4 1277.2 727.4 1279.6L727.4 1279.6L727.4 1289.2Q727.4 1290.1 727.5 1290.8Q727.6 1291.6 727.8 1292.1Q728.1 1292.6 728.5 1292.8Q728.9 1293.1 729.6 1293.1L729.6 1293.1Q730.4 1293.1 731.1 1292.9L731.1 1292.9L731.1 1296.7Q730.5 1296.8 730.0 1296.9Q729.5 1297.0 729.0 1297.1Q728.6 1297.2 728.0 1297.2Q727.5 1297.3 726.7 1297.3L726.7 1297.3Q724.1 1297.3 722.9 1296.0Q721.7 1294.8 721.4 1292.3L721.4 1292.3L721.3 1292.3Q719.9 1294.8 717.8 1296.1Q715.6 1297.5 712.6 1297.5ZM720.6 1286.1L720.6 1284.8L717.1 1284.8Q716.0 1284.9 715.0 1285.0Q714.0 1285.1 713.2 1285.6Q712.5 1286.0 712.1 1286.8Q711.6 1287.6 711.6 1289.0L711.6 1289.0Q711.6 1290.9 712.5 1291.8Q713.4 1292.7 714.8 1292.7L714.8 1292.7Q716.1 1292.7 717.2 1292.1Q718.3 1291.6 719.0 1290.7Q719.7 1289.7 720.2 1288.6Q720.6 1287.4 720.6 1286.1L720.6 1286.1ZM747.6 1275.2L742.4 1275.2L742.4 1297L735.5 1297L735.5 1275.2L731.7 1275.2L731.7 1270.6L735.5 1270.6L735.5 1267.8Q735.5 1266.3 735.9 1265.0Q736.3 1263.7 737.1 1262.8Q738.0 1261.8 739.5 1261.3Q741.0 1260.8 743.2 1260.8L743.2 1260.8Q744.4 1260.8 745.5 1260.9Q746.7 1261.0 747.6 1261.2L747.6 1261.2L747.6 1265.6Q747.1 1265.5 746.6 1265.4Q746.0 1265.4 745.6 1265.4L745.6 1265.4Q744.6 1265.4 744.0 1265.6Q743.4 1265.8 743.0 1266.1Q742.6 1266.5 742.5 1267.1Q742.4 1267.7 742.4 1268.5L742.4 1268.5L742.4 1270.6L747.6 1270.6L747.6 1275.2ZM757.1 1297.5L757.1 1297.5Q755.1 1297.5 753.6 1297.0Q752.1 1296.4 751.1 1295.4Q750.0 1294.4 749.5 1292.9Q748.9 1291.4 748.9 1289.5L748.9 1289.5Q748.9 1287.2 749.7 1285.6Q750.6 1284.0 752.0 1283.0Q753.4 1282.0 755.3 1281.6Q757.2 1281.1 759.3 1281.1L759.3 1281.1L765.0 1281.0L765.0 1279.6Q765.0 1278.2 764.8 1277.2Q764.5 1276.3 764.0 1275.7Q763.5 1275.1 762.8 1274.8Q762.1 1274.5 761.2 1274.5L761.2 1274.5Q760.3 1274.5 759.7 1274.7Q759.0 1274.9 758.5 1275.3Q758.0 1275.7 757.7 1276.5Q757.4 1277.2 757.3 1278.3L757.3 1278.3L750.1 1277.9Q750.4 1276.2 751.2 1274.8Q752.0 1273.3 753.4 1272.3Q754.7 1271.2 756.7 1270.7Q758.8 1270.1 761.5 1270.1L761.5 1270.1Q763.9 1270.1 765.9 1270.7Q767.8 1271.3 769.1 1272.5Q770.5 1273.7 771.2 1275.5Q771.9 1277.2 771.9 1279.6L771.9 1279.6L771.9 1289.2Q771.9 1290.1 772.0 1290.8Q772.1 1291.6 772.3 1292.1Q772.5 1292.6 773.0 1292.8Q773.4 1293.1 774.1 1293.1L774.1 1293.1Q774.9 1293.1 775.6 1292.9L775.6 1292.9L775.6 1296.7Q775.0 1296.8 774.5 1296.9Q774.0 1297.0 773.5 1297.1Q773.0 1297.2 772.5 1297.2Q771.9 1297.3 771.2 1297.3L771.2 1297.3Q768.6 1297.3 767.4 1296.0Q766.1 1294.8 765.9 1292.3L765.9 1292.3L765.7 1292.3Q764.4 1294.8 762.2 1296.1Q760.1 1297.5 757.1 1297.5ZM765.0 1286.1L765.0 1284.8L761.5 1284.8Q760.4 1284.9 759.4 1285.0Q758.4 1285.1 757.7 1285.6Q757.0 1286.0 756.5 1286.8Q756.1 1287.6 756.1 1289.0L756.1 1289.0Q756.1 1290.9 756.9 1291.8Q757.8 1292.7 759.3 1292.7L759.3 1292.7Q760.6 1292.7 761.6 1292.1Q762.7 1291.6 763.5 1290.7Q764.2 1289.7 764.6 1288.6Q765.0 1287.4 765.0 1286.1L765.0 1286.1ZM814.3 1270.6L807.3 1297L800.1 1297L795.9 1280.9Q795.7 1280.1 795.5 1279.2Q795.3 1278.3 795.1 1277.4L795.1 1277.4L794.7 1275.5Q794.7 1275.5 794.3 1277.4L794.3 1277.4Q794.1 1278.3 793.9 1279.2Q793.6 1280.2 793.5 1280.9L793.5 1280.9L789.2 1297L782.0 1297L775.1 1270.6L781.6 1270.6L784.9 1286.1Q785.1 1286.8 785.2 1287.6Q785.4 1288.4 785.5 1289.1L785.5 1289.1Q785.7 1289.9 785.9 1290.8L785.9 1290.8Q786.1 1289.8 786.3 1289.0L786.3 1289.0Q786.4 1288.2 786.6 1287.4Q786.7 1286.6 786.9 1286.1L786.9 1286.1L791.0 1270.6L798.4 1270.6L802.4 1286.1Q802.6 1286.7 802.8 1287.6Q802.9 1288.4 803.1 1289.1L803.1 1289.1Q803.2 1289.9 803.4 1290.8L803.4 1290.8Q803.6 1289.9 803.8 1289.1L803.8 1289.1Q803.9 1288.4 804.1 1287.6Q804.3 1286.7 804.4 1286.1L804.4 1286.1L807.9 1270.6L814.3 1270.6ZM830.9 1275.2L825.7 1275.2L825.7 1297L818.9 1297L818.9 1275.2L815.0 1275.2L815.0 1270.6L818.9 1270.6L818.9 1267.8Q818.9 1266.3 819.2 1265.0Q819.6 1263.7 820.5 1262.8Q821.4 1261.8 822.8 1261.3Q824.3 1260.8 826.6 1260.8L826.6 1260.8Q827.7 1260.8 828.9 1260.9Q830.0 1261.0 830.9 1261.2L830.9 1261.2L830.9 1265.6Q830.5 1265.5 829.9 1265.4Q829.4 1265.4 828.9 1265.4L828.9 1265.4Q828.0 1265.4 827.3 1265.6Q826.7 1265.8 826.4 1266.1Q826.0 1266.5 825.9 1267.1Q825.7 1267.7 825.7 1268.5L825.7 1268.5L825.7 1270.6L830.9 1270.6L830.9 1275.2Z M268.0 1326.6L261.1 1353L253.8 1353L249.6 1336.9Q249.4 1336.1 249.2 1335.2Q249.0 1334.3 248.8 1333.4L248.8 1333.4L248.5 1331.5Q248.5 1331.5 248.0 1333.4L248.0 1333.4Q247.8 1334.3 247.6 1335.2Q247.4 1336.2 247.2 1336.9L247.2 1336.9L242.9 1353L235.7 1353L228.9 1326.6L235.3 1326.6L238.6 1342.1Q238.8 1342.8 239.0 1343.6Q239.1 1344.4 239.3 1345.1L239.3 1345.1Q239.4 1345.9 239.6 1346.8L239.6 1346.8Q239.8 1345.8 240.0 1345.0L240.0 1345.0Q240.1 1344.2 240.3 1343.4Q240.5 1342.6 240.6 1342.1L240.6 1342.1L244.7 1326.6L252.1 1326.6L256.1 1342.1Q256.3 1342.7 256.5 1343.6Q256.7 1344.4 256.8 1345.1L256.8 1345.1Q257.0 1345.9 257.1 1346.8L257.1 1346.8Q257.3 1345.9 257.5 1345.1L257.5 1345.1Q257.7 1344.4 257.8 1343.6Q258.0 1342.7 258.2 1342.1L258.2 1342.1L261.6 1326.6L268.0 1326.6ZM277.5 1353.5L277.5 1353.5Q275.6 1353.5 274.1 1353.0Q272.6 1352.4 271.5 1351.4Q270.5 1350.4 269.9 1348.9Q269.4 1347.4 269.4 1345.5L269.4 1345.5Q269.4 1343.2 270.2 1341.6Q271.0 1340.0 272.4 1339.0Q273.8 1338.0 275.7 1337.6Q277.6 1337.1 279.8 1337.1L279.8 1337.1L285.5 1337.0L285.5 1335.6Q285.5 1334.2 285.2 1333.2Q285.0 1332.3 284.5 1331.7Q284.0 1331.1 283.3 1330.8Q282.5 1330.5 281.6 1330.5L281.6 1330.5Q280.8 1330.5 280.1 1330.7Q279.4 1330.9 278.9 1331.3Q278.4 1331.7 278.1 1332.5Q277.8 1333.2 277.7 1334.3L277.7 1334.3L270.6 1333.9Q270.8 1332.2 271.6 1330.8Q272.4 1329.3 273.8 1328.3Q275.2 1327.2 277.2 1326.7Q279.2 1326.1 281.9 1326.1L281.9 1326.1Q284.4 1326.1 286.3 1326.7Q288.2 1327.3 289.6 1328.5Q290.9 1329.7 291.6 1331.5Q292.3 1333.2 292.3 1335.6L292.3 1335.6L292.3 1345.2Q292.3 1346.1 292.4 1346.8Q292.5 1347.6 292.7 1348.1Q293.0 1348.6 293.4 1348.8Q293.8 1349.1 294.5 1349.1L294.5 1349.1Q295.3 1349.1 296.0 1348.9L296.0 1348.9L296.0 1352.7Q295.4 1352.8 294.9 1352.9Q294.4 1353.0 293.9 1353.1Q293.5 1353.2 292.9 1353.2Q292.4 1353.3 291.6 1353.3L291.6 1353.3Q289.0 1353.3 287.8 1352.0Q286.6 1350.8 286.3 1348.3L286.3 1348.3L286.2 1348.3Q284.8 1350.8 282.7 1352.1Q280.5 1353.5 277.5 1353.5ZM285.5 1342.1L285.5 1340.8L282.0 1340.8Q280.9 1340.9 279.9 1341.0Q278.9 1341.1 278.1 1341.6Q277.4 1342.0 276.9 1342.8Q276.5 1343.6 276.5 1345.0L276.5 1345.0Q276.5 1346.9 277.4 1347.8Q278.2 1348.7 279.7 1348.7L279.7 1348.7Q281.0 1348.7 282.1 1348.1Q283.2 1347.6 283.9 1346.7Q284.6 1345.7 285.1 1344.6Q285.5 1343.4 285.5 1342.1L285.5 1342.1Z M325.7 1331.2L320.5 1331.2L320.5 1353L313.7 1353L313.7 1331.2L309.9 1331.2L309.9 1326.6L313.7 1326.6L313.7 1323.8Q313.7 1322.3 314.1 1321.0Q314.4 1319.7 315.3 1318.8Q316.2 1317.8 317.7 1317.3Q319.2 1316.8 321.4 1316.8L321.4 1316.8Q322.6 1316.8 323.7 1316.9Q324.8 1317.0 325.7 1317.2L325.7 1317.2L325.7 1321.6Q325.3 1321.5 324.8 1321.4Q324.2 1321.4 323.7 1321.4L323.7 1321.4Q322.8 1321.4 322.2 1321.6Q321.5 1321.8 321.2 1322.1Q320.8 1322.5 320.7 1323.1Q320.5 1323.7 320.5 1324.5L320.5 1324.5L320.5 1326.6L325.7 1326.6L325.7 1331.2ZM364.6 1326.6L357.7 1353L350.5 1353L346.3 1336.9Q346.1 1336.1 345.9 1335.2Q345.7 1334.3 345.5 1333.4L345.5 1333.4L345.1 1331.5Q345.1 1331.5 344.7 1333.4L344.7 1333.4Q344.5 1334.3 344.3 1335.2Q344.0 1336.2 343.8 1336.9L343.8 1336.9L339.6 1353L332.3 1353L325.5 1326.6L331.9 1326.6L335.3 1342.1Q335.4 1342.8 335.6 1343.6Q335.8 1344.4 335.9 1345.1L335.9 1345.1Q336.1 1345.9 336.3 1346.8L336.3 1346.8Q336.5 1345.8 336.6 1345.0L336.6 1345.0Q336.8 1344.2 337.0 1343.4Q337.1 1342.6 337.2 1342.1L337.2 1342.1L341.4 1326.6L348.7 1326.6L352.8 1342.1Q353.0 1342.7 353.1 1343.6Q353.3 1344.4 353.5 1345.1L353.5 1345.1Q353.6 1345.9 353.8 1346.8L353.8 1346.8Q354.0 1345.9 354.2 1345.1L354.2 1345.1Q354.3 1344.4 354.5 1343.6Q354.7 1342.7 354.8 1342.1L354.8 1342.1L358.3 1326.6L364.6 1326.6ZM374.1 1353.5L374.1 1353.5Q372.2 1353.5 370.7 1353.0Q369.2 1352.4 368.2 1351.4Q367.1 1350.4 366.6 1348.9Q366.0 1347.4 366.0 1345.5L366.0 1345.5Q366.0 1343.2 366.8 1341.6Q367.6 1340.0 369.1 1339.0Q370.5 1338.0 372.4 1337.6Q374.3 1337.1 376.4 1337.1L376.4 1337.1L382.1 1337.0L382.1 1335.6Q382.1 1334.2 381.9 1333.2Q381.6 1332.3 381.1 1331.7Q380.6 1331.1 379.9 1330.8Q379.2 1330.5 378.3 1330.5L378.3 1330.5Q377.4 1330.5 376.7 1330.7Q376.1 1330.9 375.6 1331.3Q375.1 1331.7 374.8 1332.5Q374.5 1333.2 374.4 1334.3L374.4 1334.3L367.2 1333.9Q367.5 1332.2 368.3 1330.8Q369.1 1329.3 370.4 1328.3Q371.8 1327.2 373.8 1326.7Q375.8 1326.1 378.6 1326.1L378.6 1326.1Q381.0 1326.1 383.0 1326.7Q384.9 1327.3 386.2 1328.5Q387.6 1329.7 388.3 1331.5Q389.0 1333.2 389.0 1335.6L389.0 1335.6L389.0 1345.2Q389.0 1346.1 389.1 1346.8Q389.2 1347.6 389.4 1348.1Q389.6 1348.6 390.0 1348.8Q390.5 1349.1 391.2 1349.1L391.2 1349.1Q391.9 1349.1 392.7 1348.9L392.7 1348.9L392.7 1352.7Q392.1 1352.8 391.6 1352.9Q391.1 1353.0 390.6 1353.1Q390.1 1353.2 389.6 1353.2Q389.0 1353.3 388.3 1353.3L388.3 1353.3Q385.7 1353.3 384.5 1352.0Q383.2 1350.8 383.0 1348.3L383.0 1348.3L382.8 1348.3Q381.5 1350.8 379.3 1352.1Q377.2 1353.5 374.1 1353.5ZM382.1 1342.1L382.1 1340.8L378.6 1340.8Q377.5 1340.9 376.5 1341.0Q375.5 1341.1 374.8 1341.6Q374.0 1342.0 373.6 1342.8Q373.2 1343.6 373.2 1345.0L373.2 1345.0Q373.2 1346.9 374.0 1347.8Q374.9 1348.7 376.3 1348.7L376.3 1348.7Q377.7 1348.7 378.7 1348.1Q379.8 1347.6 380.5 1346.7Q381.3 1345.7 381.7 1344.6Q382.1 1343.4 382.1 1342.1L382.1 1342.1ZM431.3 1326.6L424.4 1353L417.2 1353L413.0 1336.9Q412.8 1336.1 412.6 1335.2Q412.4 1334.3 412.2 1333.4L412.2 1333.4L411.8 1331.5Q411.8 1331.5 411.4 1333.4L411.4 1333.4Q411.2 1334.3 411.0 1335.2Q410.7 1336.2 410.5 1336.9L410.5 1336.9L406.3 1353L399.0 1353L392.2 1326.6L398.6 1326.6L402.0 1342.1Q402.1 1342.8 402.3 1343.6Q402.5 1344.4 402.6 1345.1L402.6 1345.1Q402.8 1345.9 403.0 1346.8L403.0 1346.8Q403.2 1345.8 403.3 1345.0L403.3 1345.0Q403.5 1344.2 403.7 1343.4Q403.8 1342.6 403.9 1342.1L403.9 1342.1L408.1 1326.6L415.4 1326.6L419.5 1342.1Q419.7 1342.7 419.8 1343.6Q420.0 1344.4 420.2 1345.1L420.2 1345.1Q420.3 1345.9 420.5 1346.8L420.5 1346.8Q420.7 1345.9 420.9 1345.1L420.9 1345.1Q421.0 1344.4 421.2 1343.6Q421.4 1342.7 421.5 1342.1L421.5 1342.1L425.0 1326.6L431.3 1326.6ZM445.5 1353.5L445.5 1353.5Q442.7 1353.5 440.4 1352.6Q438.1 1351.8 436.5 1350.1Q434.9 1348.4 434.0 1345.8Q433.2 1343.2 433.2 1339.7L433.2 1339.7Q433.2 1335.9 434.2 1333.3Q435.2 1330.7 436.9 1329.1Q438.7 1327.5 440.9 1326.8Q443.2 1326.1 445.6 1326.1L445.6 1326.1Q448.8 1326.1 451.0 1327.2Q453.2 1328.3 454.6 1330.2Q456.0 1332.2 456.7 1334.9Q457.3 1337.6 457.3 1340.9L457.3 1340.9L457.3 1341.1L440.4 1341.1Q440.4 1342.8 440.7 1344.2Q441.0 1345.6 441.6 1346.7Q442.3 1347.7 443.4 1348.3Q444.4 1348.9 445.9 1348.9L445.9 1348.9Q447.7 1348.9 448.8 1348.1Q450.0 1347.4 450.5 1345.7L450.5 1345.7L456.9 1346.3Q456.5 1347.4 455.7 1348.7Q454.9 1350.0 453.6 1351.0Q452.3 1352.1 450.3 1352.8Q448.4 1353.5 445.5 1353.5ZM445.5 1330.4L445.5 1330.4Q444.5 1330.4 443.6 1330.8Q442.7 1331.1 442.0 1331.9Q441.3 1332.7 440.9 1333.9Q440.5 1335.1 440.4 1336.8L440.4 1336.8L450.7 1336.8Q450.5 1333.6 449.2 1332.0Q447.8 1330.4 445.5 1330.4Z M482.6 1353.5L482.6 1353.5Q480.7 1353.5 479.2 1353.0Q477.7 1352.4 476.6 1351.4Q475.6 1350.4 475.0 1348.9Q474.5 1347.4 474.5 1345.5L474.5 1345.5Q474.5 1343.2 475.3 1341.6Q476.1 1340.0 477.5 1339.0Q478.9 1338.0 480.8 1337.6Q482.7 1337.1 484.9 1337.1L484.9 1337.1L490.6 1337.0L490.6 1335.6Q490.6 1334.2 490.3 1333.2Q490.1 1332.3 489.6 1331.7Q489.1 1331.1 488.4 1330.8Q487.6 1330.5 486.7 1330.5L486.7 1330.5Q485.9 1330.5 485.2 1330.7Q484.5 1330.9 484.0 1331.3Q483.5 1331.7 483.2 1332.5Q482.9 1333.2 482.8 1334.3L482.8 1334.3L475.7 1333.9Q476.0 1332.2 476.7 1330.8Q477.5 1329.3 478.9 1328.3Q480.3 1327.2 482.3 1326.7Q484.3 1326.1 487.0 1326.1L487.0 1326.1Q489.5 1326.1 491.4 1326.7Q493.3 1327.3 494.7 1328.5Q496.0 1329.7 496.7 1331.5Q497.4 1333.2 497.4 1335.6L497.4 1335.6L497.4 1345.2Q497.4 1346.1 497.5 1346.8Q497.6 1347.6 497.8 1348.1Q498.1 1348.6 498.5 1348.8Q498.9 1349.1 499.6 1349.1L499.6 1349.1Q500.4 1349.1 501.1 1348.9L501.1 1348.9L501.1 1352.7Q500.5 1352.8 500.0 1352.9Q499.5 1353.0 499.0 1353.1Q498.6 1353.2 498.0 1353.2Q497.5 1353.3 496.7 1353.3L496.7 1353.3Q494.1 1353.3 492.9 1352.0Q491.7 1350.8 491.4 1348.3L491.4 1348.3L491.3 1348.3Q489.9 1350.8 487.8 1352.1Q485.6 1353.5 482.6 1353.5ZM490.6 1342.1L490.6 1340.8L487.1 1340.8Q486.0 1340.9 485.0 1341.0Q484.0 1341.1 483.2 1341.6Q482.5 1342.0 482.1 1342.8Q481.6 1343.6 481.6 1345.0L481.6 1345.0Q481.6 1346.9 482.5 1347.8Q483.4 1348.7 484.8 1348.7L484.8 1348.7Q486.1 1348.7 487.2 1348.1Q488.3 1347.6 489.0 1346.7Q489.7 1345.7 490.2 1344.6Q490.6 1343.4 490.6 1342.1L490.6 1342.1ZM511.1 1353.4L511.1 1353.4Q508.0 1353.4 506.4 1351.8Q504.8 1350.1 504.8 1346.8L504.8 1346.8L504.8 1331.2L501.4 1331.2L501.4 1326.6L505.1 1326.6L507.3 1320.4L511.5 1320.4L511.5 1326.6L516.6 1326.6L516.6 1331.2L511.5 1331.2L511.5 1344.9Q511.5 1346.9 512.3 1347.8Q513.0 1348.7 514.6 1348.7L514.6 1348.7Q515.2 1348.7 515.7 1348.6Q516.2 1348.5 516.8 1348.4L516.8 1348.4L516.8 1352.6Q515.6 1353.0 514.2 1353.2Q512.7 1353.4 511.1 1353.4ZM556.4 1326.6L549.5 1353L542.3 1353L538.1 1336.9Q537.9 1336.1 537.7 1335.2Q537.5 1334.3 537.3 1333.4L537.3 1333.4L536.9 1331.5Q536.9 1331.5 536.5 1333.4L536.5 1333.4Q536.3 1334.3 536.1 1335.2Q535.8 1336.2 535.6 1336.9L535.6 1336.9L531.4 1353L524.1 1353L517.3 1326.6L523.8 1326.6L527.1 1342.1Q527.2 1342.8 527.4 1343.6Q527.6 1344.4 527.7 1345.1L527.7 1345.1Q527.9 1345.9 528.1 1346.8L528.1 1346.8Q528.3 1345.8 528.4 1345.0L528.4 1345.0Q528.6 1344.2 528.8 1343.4Q528.9 1342.6 529.1 1342.1L529.1 1342.1L533.2 1326.6L540.6 1326.6L544.6 1342.1Q544.8 1342.7 544.9 1343.6Q545.1 1344.4 545.3 1345.1L545.3 1345.1Q545.4 1345.9 545.6 1346.8L545.6 1346.8Q545.8 1345.9 546.0 1345.1L546.0 1345.1Q546.1 1344.4 546.3 1343.6Q546.5 1342.7 546.6 1342.1L546.6 1342.1L550.1 1326.6L556.4 1326.6ZM570.7 1353.5L570.7 1353.5Q567.8 1353.5 565.5 1352.6Q563.2 1351.8 561.6 1350.1Q560.0 1348.4 559.2 1345.8Q558.3 1343.2 558.3 1339.7L558.3 1339.7Q558.3 1335.9 559.3 1333.3Q560.3 1330.7 562.1 1329.1Q563.8 1327.5 566.0 1326.8Q568.3 1326.1 570.8 1326.1L570.8 1326.1Q573.9 1326.1 576.1 1327.2Q578.3 1328.3 579.7 1330.2Q581.1 1332.2 581.8 1334.9Q582.4 1337.6 582.4 1340.9L582.4 1340.9L582.4 1341.1L565.5 1341.1Q565.5 1342.8 565.8 1344.2Q566.1 1345.6 566.8 1346.7Q567.4 1347.7 568.5 1348.3Q569.5 1348.9 571.0 1348.9L571.0 1348.9Q572.8 1348.9 574.0 1348.1Q575.1 1347.4 575.6 1345.7L575.6 1345.7L582.1 1346.3Q581.6 1347.4 580.8 1348.7Q580.0 1350.0 578.7 1351.0Q577.4 1352.1 575.4 1352.8Q573.5 1353.5 570.7 1353.5ZM570.7 1330.4L570.7 1330.4Q569.6 1330.4 568.7 1330.8Q567.8 1331.1 567.1 1331.9Q566.4 1332.7 566.0 1333.9Q565.6 1335.1 565.6 1336.8L565.6 1336.8L575.8 1336.8Q575.6 1333.6 574.3 1332.0Q572.9 1330.4 570.7 1330.4ZM593.8 1353.5L593.8 1353.5Q591.8 1353.5 590.3 1353.0Q588.8 1352.4 587.8 1351.4Q586.7 1350.4 586.2 1348.9Q585.6 1347.4 585.6 1345.5L585.6 1345.5Q585.6 1343.2 586.4 1341.6Q587.3 1340.0 588.7 1339.0Q590.1 1338.0 592.0 1337.6Q593.9 1337.1 596.0 1337.1L596.0 1337.1L601.7 1337.0L601.7 1335.6Q601.7 1334.2 601.5 1333.2Q601.2 1332.3 600.7 1331.7Q600.2 1331.1 599.5 1330.8Q598.8 1330.5 597.9 1330.5L597.9 1330.5Q597.0 1330.5 596.4 1330.7Q595.7 1330.9 595.2 1331.3Q594.7 1331.7 594.4 1332.5Q594.1 1333.2 594.0 1334.3L594.0 1334.3L586.8 1333.9Q587.1 1332.2 587.9 1330.8Q588.7 1329.3 590.1 1328.3Q591.4 1327.2 593.4 1326.7Q595.5 1326.1 598.2 1326.1L598.2 1326.1Q600.6 1326.1 602.6 1326.7Q604.5 1327.3 605.8 1328.5Q607.2 1329.7 607.9 1331.5Q608.6 1333.2 608.6 1335.6L608.6 1335.6L608.6 1345.2Q608.6 1346.1 608.7 1346.8Q608.8 1347.6 609.0 1348.1Q609.2 1348.6 609.7 1348.8Q610.1 1349.1 610.8 1349.1L610.8 1349.1Q611.5 1349.1 612.3 1348.9L612.3 1348.9L612.3 1352.7Q611.7 1352.8 611.2 1352.9Q610.7 1353.0 610.2 1353.1Q609.7 1353.2 609.2 1353.2Q608.6 1353.3 607.9 1353.3L607.9 1353.3Q605.3 1353.3 604.1 1352.0Q602.8 1350.8 602.6 1348.3L602.6 1348.3L602.4 1348.3Q601.1 1350.8 598.9 1352.1Q596.8 1353.5 593.8 1353.5ZM601.7 1342.1L601.7 1340.8L598.2 1340.8Q597.1 1340.9 596.1 1341.0Q595.1 1341.1 594.4 1341.6Q593.7 1342.0 593.2 1342.8Q592.8 1343.6 592.8 1345.0L592.8 1345.0Q592.8 1346.9 593.6 1347.8Q594.5 1348.7 595.9 1348.7L595.9 1348.7Q597.3 1348.7 598.3 1348.1Q599.4 1347.6 600.2 1346.7Q600.9 1345.7 601.3 1344.6Q601.7 1343.4 601.7 1342.1L601.7 1342.1ZM622.2 1353.4L622.2 1353.4Q619.2 1353.4 617.6 1351.8Q615.9 1350.1 615.9 1346.8L615.9 1346.8L615.9 1331.2L612.6 1331.2L612.6 1326.6L616.3 1326.6L618.4 1320.4L622.7 1320.4L622.7 1326.6L627.7 1326.6L627.7 1331.2L622.7 1331.2L622.7 1344.9Q622.7 1346.9 623.4 1347.8Q624.2 1348.7 625.7 1348.7L625.7 1348.7Q626.3 1348.7 626.9 1348.6Q627.4 1348.5 628.0 1348.4L628.0 1348.4L628.0 1352.6Q626.7 1353.0 625.3 1353.2Q623.9 1353.4 622.2 1353.4Z M652.6 1353.5L652.6 1353.5Q650.7 1353.5 649.2 1353.0Q647.7 1352.4 646.6 1351.4Q645.6 1350.4 645.0 1348.9Q644.5 1347.4 644.5 1345.5L644.5 1345.5Q644.5 1343.2 645.3 1341.6Q646.1 1340.0 647.5 1339.0Q648.9 1338.0 650.8 1337.6Q652.7 1337.1 654.9 1337.1L654.9 1337.1L660.6 1337.0L660.6 1335.6Q660.6 1334.2 660.3 1333.2Q660.1 1332.3 659.6 1331.7Q659.1 1331.1 658.4 1330.8Q657.6 1330.5 656.7 1330.5L656.7 1330.5Q655.9 1330.5 655.2 1330.7Q654.5 1330.9 654.0 1331.3Q653.5 1331.7 653.2 1332.5Q652.9 1333.2 652.8 1334.3L652.8 1334.3L645.7 1333.9Q646.0 1332.2 646.7 1330.8Q647.5 1329.3 648.9 1328.3Q650.3 1327.2 652.3 1326.7Q654.3 1326.1 657.0 1326.1L657.0 1326.1Q659.5 1326.1 661.4 1326.7Q663.3 1327.3 664.7 1328.5Q666.0 1329.7 666.7 1331.5Q667.4 1333.2 667.4 1335.6L667.4 1335.6L667.4 1345.2Q667.4 1346.1 667.5 1346.8Q667.6 1347.6 667.8 1348.1Q668.1 1348.6 668.5 1348.8Q668.9 1349.1 669.6 1349.1L669.6 1349.1Q670.4 1349.1 671.1 1348.9L671.1 1348.9L671.1 1352.7Q670.5 1352.8 670.0 1352.9Q669.5 1353.0 669.0 1353.1Q668.6 1353.2 668.0 1353.2Q667.5 1353.3 666.7 1353.3L666.7 1353.3Q664.1 1353.3 662.9 1352.0Q661.7 1350.8 661.4 1348.3L661.4 1348.3L661.3 1348.3Q659.9 1350.8 657.8 1352.1Q655.6 1353.5 652.6 1353.5ZM660.6 1342.1L660.6 1340.8L657.1 1340.8Q656.0 1340.9 655.0 1341.0Q654.0 1341.1 653.2 1341.6Q652.5 1342.0 652.1 1342.8Q651.6 1343.6 651.6 1345.0L651.6 1345.0Q651.6 1346.9 652.5 1347.8Q653.4 1348.7 654.8 1348.7L654.8 1348.7Q656.1 1348.7 657.2 1348.1Q658.3 1347.6 659.0 1346.7Q659.7 1345.7 660.2 1344.6Q660.6 1343.4 660.6 1342.1L660.6 1342.1ZM709.8 1326.6L702.9 1353L695.6 1353L691.4 1336.9Q691.2 1336.1 691.0 1335.2Q690.8 1334.3 690.7 1333.4L690.7 1333.4L690.3 1331.5Q690.3 1331.5 689.8 1333.4L689.8 1333.4Q689.6 1334.3 689.4 1335.2Q689.2 1336.2 689.0 1336.9L689.0 1336.9L684.7 1353L677.5 1353L670.7 1326.6L677.1 1326.6L680.5 1342.1Q680.6 1342.8 680.8 1343.6Q680.9 1344.4 681.1 1345.1L681.1 1345.1Q681.3 1345.9 681.5 1346.8L681.5 1346.8Q681.6 1345.8 681.8 1345.0L681.8 1345.0Q681.9 1344.2 682.1 1343.4Q682.3 1342.6 682.4 1342.1L682.4 1342.1L686.6 1326.6L693.9 1326.6L698.0 1342.1Q698.1 1342.7 698.3 1343.6Q698.5 1344.4 698.6 1345.1L698.6 1345.1Q698.8 1345.9 699.0 1346.8L699.0 1346.8Q699.2 1345.9 699.3 1345.1L699.3 1345.1Q699.5 1344.4 699.6 1343.6Q699.8 1342.7 700.0 1342.1L700.0 1342.1L703.4 1326.6L709.8 1326.6ZM720.0 1353.4L720.0 1353.4Q716.9 1353.4 715.3 1351.8Q713.7 1350.1 713.7 1346.8L713.7 1346.8L713.7 1331.2L710.3 1331.2L710.3 1326.6L714.0 1326.6L716.1 1320.4L720.4 1320.4L720.4 1326.6L725.4 1326.6L725.4 1331.2L720.4 1331.2L720.4 1344.9Q720.4 1346.9 721.2 1347.8Q721.9 1348.7 723.4 1348.7L723.4 1348.7Q724.1 1348.7 724.6 1348.6Q725.1 1348.5 725.7 1348.4L725.7 1348.4L725.7 1352.6Q724.5 1353.0 723.1 1353.2Q721.6 1353.4 720.0 1353.4Z M749.6 1353.5L749.6 1353.5Q747.7 1353.5 746.2 1353.0Q744.7 1352.4 743.6 1351.4Q742.6 1350.4 742.0 1348.9Q741.5 1347.4 741.5 1345.5L741.5 1345.5Q741.5 1343.2 742.3 1341.6Q743.1 1340.0 744.5 1339.0Q745.9 1338.0 747.8 1337.6Q749.7 1337.1 751.9 1337.1L751.9 1337.1L757.6 1337.0L757.6 1335.6Q757.6 1334.2 757.3 1333.2Q757.1 1332.3 756.6 1331.7Q756.1 1331.1 755.4 1330.8Q754.6 1330.5 753.7 1330.5L753.7 1330.5Q752.9 1330.5 752.2 1330.7Q751.5 1330.9 751.0 1331.3Q750.5 1331.7 750.2 1332.5Q749.9 1333.2 749.8 1334.3L749.8 1334.3L742.7 1333.9Q743.0 1332.2 743.7 1330.8Q744.5 1329.3 745.9 1328.3Q747.3 1327.2 749.3 1326.7Q751.3 1326.1 754.0 1326.1L754.0 1326.1Q756.5 1326.1 758.4 1326.7Q760.3 1327.3 761.7 1328.5Q763.0 1329.7 763.7 1331.5Q764.4 1333.2 764.4 1335.6L764.4 1335.6L764.4 1345.2Q764.4 1346.1 764.5 1346.8Q764.6 1347.6 764.8 1348.1Q765.1 1348.6 765.5 1348.8Q765.9 1349.1 766.6 1349.1L766.6 1349.1Q767.4 1349.1 768.1 1348.9L768.1 1348.9L768.1 1352.7Q767.5 1352.8 767.0 1352.9Q766.5 1353.0 766.0 1353.1Q765.6 1353.2 765.0 1353.2Q764.5 1353.3 763.7 1353.3L763.7 1353.3Q761.1 1353.3 759.9 1352.0Q758.7 1350.8 758.4 1348.3L758.4 1348.3L758.3 1348.3Q756.9 1350.8 754.8 1352.1Q752.6 1353.5 749.6 1353.5ZM757.6 1342.1L757.6 1340.8L754.1 1340.8Q753.0 1340.9 752.0 1341.0Q751.0 1341.1 750.2 1341.6Q749.5 1342.0 749.1 1342.8Q748.6 1343.6 748.6 1345.0L748.6 1345.0Q748.6 1346.9 749.5 1347.8Q750.4 1348.7 751.8 1348.7L751.8 1348.7Q753.1 1348.7 754.2 1348.1Q755.3 1347.6 756.0 1346.7Q756.7 1345.7 757.2 1344.6Q757.6 1343.4 757.6 1342.1L757.6 1342.1ZM806.8 1326.6L799.9 1353L792.6 1353L788.4 1336.9Q788.2 1336.1 788.0 1335.2Q787.8 1334.3 787.7 1333.4L787.7 1333.4L787.3 1331.5Q787.3 1331.5 786.8 1333.4L786.8 1333.4Q786.6 1334.3 786.4 1335.2Q786.2 1336.2 786.0 1336.9L786.0 1336.9L781.7 1353L774.5 1353L767.7 1326.6L774.1 1326.6L777.5 1342.1Q777.6 1342.8 777.8 1343.6Q777.9 1344.4 778.1 1345.1L778.1 1345.1Q778.3 1345.9 778.5 1346.8L778.5 1346.8Q778.6 1345.8 778.8 1345.0L778.8 1345.0Q778.9 1344.2 779.1 1343.4Q779.3 1342.6 779.4 1342.1L779.4 1342.1L783.6 1326.6L790.9 1326.6L795.0 1342.1Q795.1 1342.7 795.3 1343.6Q795.5 1344.4 795.6 1345.1L795.6 1345.1Q795.8 1345.9 796.0 1346.8L796.0 1346.8Q796.2 1345.9 796.3 1345.1L796.3 1345.1Q796.5 1344.4 796.6 1343.6Q796.8 1342.7 797.0 1342.1L797.0 1342.1L800.4 1326.6L806.8 1326.6ZM821.0 1353.5L821.0 1353.5Q818.1 1353.5 815.9 1352.6Q813.6 1351.8 812.0 1350.1Q810.4 1348.4 809.5 1345.8Q808.7 1343.2 808.7 1339.7L808.7 1339.7Q808.7 1335.9 809.7 1333.3Q810.7 1330.7 812.4 1329.1Q814.1 1327.5 816.4 1326.8Q818.6 1326.1 821.1 1326.1L821.1 1326.1Q824.2 1326.1 826.4 1327.2Q828.6 1328.3 830.1 1330.2Q831.5 1332.2 832.1 1334.9Q832.8 1337.6 832.8 1340.9L832.8 1340.9L832.8 1341.1L815.9 1341.1Q815.9 1342.8 816.1 1344.2Q816.4 1345.6 817.1 1346.7Q817.8 1347.7 818.8 1348.3Q819.9 1348.9 821.3 1348.9L821.3 1348.9Q823.2 1348.9 824.3 1348.1Q825.4 1347.4 825.9 1345.7L825.9 1345.7L832.4 1346.3Q832.0 1347.4 831.2 1348.7Q830.4 1350.0 829.1 1351.0Q827.7 1352.1 825.8 1352.8Q823.8 1353.5 821.0 1353.5ZM821.0 1330.4L821.0 1330.4Q820.0 1330.4 819.0 1330.8Q818.1 1331.1 817.5 1331.9Q816.8 1332.7 816.4 1333.9Q816.0 1335.1 815.9 1336.8L815.9 1336.8L826.2 1336.8Q826.0 1333.6 824.6 1332.0Q823.3 1330.4 821.0 1330.4ZM844.8 1353.4L844.8 1353.4Q841.7 1353.4 840.1 1351.8Q838.5 1350.1 838.5 1346.8L838.5 1346.8L838.5 1331.2L835.1 1331.2L835.1 1326.6L838.8 1326.6L841.0 1320.4L845.2 1320.4L845.2 1326.6L850.3 1326.6L850.3 1331.2L845.2 1331.2L845.2 1344.9Q845.2 1346.9 846.0 1347.8Q846.7 1348.7 848.3 1348.7L848.3 1348.7Q848.9 1348.7 849.4 1348.6Q849.9 1348.5 850.5 1348.4L850.5 1348.4L850.5 1352.6Q849.3 1353.0 847.9 1353.2Q846.4 1353.4 844.8 1353.4Z M449.2 1409L442.6 1409Q442.6 1408.8 442.5 1408.3Q442.4 1407.8 442.4 1407.2Q442.3 1406.5 442.3 1405.9Q442.2 1405.2 442.2 1404.7L442.2 1404.7L442.1 1404.7Q440.9 1407.3 438.8 1408.4Q436.7 1409.5 433.7 1409.5L433.7 1409.5Q431.2 1409.5 429.4 1408.5Q427.6 1407.4 426.4 1405.6Q425.2 1403.8 424.6 1401.3Q424.1 1398.8 424.1 1395.8L424.1 1395.8Q424.1 1392.8 424.6 1390.3Q425.2 1387.8 426.5 1386.0Q427.7 1384.1 429.7 1383.1Q431.6 1382.1 434.2 1382.1L434.2 1382.1Q435.5 1382.1 436.7 1382.4Q437.9 1382.6 438.9 1383.2Q439.9 1383.8 440.8 1384.6Q441.6 1385.5 442.2 1386.8L442.2 1386.8L442.2 1386.8Q442.2 1386.5 442.2 1386.0Q442.2 1385.6 442.2 1385.0Q442.2 1384.3 442.2 1383.7Q442.2 1383.0 442.2 1382.4L442.2 1382.4L442.2 1372.8L449.1 1372.8L449.1 1403.2Q449.1 1405.2 449.1 1406.7Q449.2 1408.2 449.2 1409L449.2 1409ZM442.3 1395.6L442.3 1395.6Q442.3 1393.0 441.8 1391.3Q441.3 1389.6 440.5 1388.6Q439.7 1387.6 438.7 1387.2Q437.7 1386.8 436.6 1386.8L436.6 1386.8Q435.3 1386.8 434.3 1387.3Q433.3 1387.8 432.6 1388.9Q431.9 1390.0 431.6 1391.7Q431.2 1393.4 431.2 1395.8L431.2 1395.8Q431.2 1404.8 436.6 1404.8L436.6 1404.8Q437.6 1404.8 438.7 1404.4Q439.7 1403.9 440.5 1402.9Q441.3 1401.8 441.8 1400.1Q442.3 1398.3 442.3 1395.6ZM462.1 1409.5L462.1 1409.5Q460.2 1409.5 458.7 1409.0Q457.2 1408.4 456.2 1407.4Q455.1 1406.4 454.6 1404.9Q454.0 1403.4 454.0 1401.5L454.0 1401.5Q454.0 1399.2 454.8 1397.6Q455.6 1396.0 457.1 1395.0Q458.5 1394.0 460.4 1393.6Q462.3 1393.1 464.4 1393.1L464.4 1393.1L470.1 1393.0L470.1 1391.6Q470.1 1390.2 469.9 1389.2Q469.6 1388.3 469.1 1387.7Q468.6 1387.1 467.9 1386.8Q467.2 1386.5 466.3 1386.5L466.3 1386.5Q465.4 1386.5 464.7 1386.7Q464.1 1386.9 463.6 1387.3Q463.1 1387.7 462.8 1388.5Q462.5 1389.2 462.4 1390.3L462.4 1390.3L455.2 1389.9Q455.5 1388.2 456.3 1386.8Q457.1 1385.3 458.4 1384.3Q459.8 1383.2 461.8 1382.7Q463.8 1382.1 466.6 1382.1L466.6 1382.1Q469.0 1382.1 471.0 1382.7Q472.9 1383.3 474.2 1384.5Q475.6 1385.7 476.3 1387.5Q477.0 1389.2 477.0 1391.6L477.0 1391.6L477.0 1401.2Q477.0 1402.1 477.1 1402.8Q477.2 1403.6 477.4 1404.1Q477.6 1404.6 478.0 1404.8Q478.5 1405.1 479.2 1405.1L479.2 1405.1Q479.9 1405.1 480.7 1404.9L480.7 1404.9L480.7 1408.7Q480.1 1408.8 479.6 1408.9Q479.1 1409.0 478.6 1409.1Q478.1 1409.2 477.6 1409.2Q477.0 1409.3 476.3 1409.3L476.3 1409.3Q473.7 1409.3 472.5 1408.0Q471.2 1406.8 471.0 1404.3L471.0 1404.3L470.8 1404.3Q469.5 1406.8 467.3 1408.1Q465.2 1409.5 462.1 1409.5ZM470.1 1398.1L470.1 1396.8L466.6 1396.8Q465.5 1396.9 464.5 1397.0Q463.5 1397.1 462.8 1397.6Q462.0 1398.0 461.6 1398.8Q461.2 1399.6 461.2 1401.0L461.2 1401.0Q461.2 1402.9 462.0 1403.8Q462.9 1404.7 464.3 1404.7L464.3 1404.7Q465.7 1404.7 466.7 1404.1Q467.8 1403.6 468.5 1402.7Q469.3 1401.7 469.7 1400.6Q470.1 1399.4 470.1 1398.1L470.1 1398.1ZM506.1 1401.3L506.1 1401.3Q506.1 1403.2 505.3 1404.7Q504.5 1406.2 503.0 1407.3Q501.5 1408.3 499.3 1408.9Q497.1 1409.5 494.3 1409.5L494.3 1409.5Q491.8 1409.5 489.7 1409.1Q487.7 1408.8 486.2 1407.9Q484.7 1407.1 483.6 1405.7Q482.6 1404.4 482.1 1402.4L482.1 1402.4L488.1 1401.5Q488.4 1402.6 488.9 1403.3Q489.5 1404.0 490.2 1404.3Q491.0 1404.7 492.0 1404.8Q493.0 1404.9 494.3 1404.9L494.3 1404.9Q495.5 1404.9 496.5 1404.8Q497.5 1404.7 498.2 1404.3Q499.0 1404.0 499.4 1403.4Q499.8 1402.8 499.8 1401.9L499.8 1401.9Q499.8 1400.9 499.2 1400.3Q498.6 1399.7 497.6 1399.3Q496.5 1398.9 495.1 1398.7Q493.7 1398.4 492.1 1398.0L492.1 1398.0Q490.5 1397.6 488.9 1397.1Q487.3 1396.6 486.0 1395.7Q484.7 1394.9 483.9 1393.5Q483.2 1392.2 483.2 1390.1L483.2 1390.1Q483.2 1388.2 483.9 1386.7Q484.6 1385.2 486.0 1384.2Q487.5 1383.2 489.5 1382.6Q491.6 1382.1 494.3 1382.1L494.3 1382.1Q496.5 1382.1 498.3 1382.5Q500.2 1382.9 501.7 1383.7Q503.1 1384.6 504.1 1386.0Q505.1 1387.3 505.5 1389.2L505.5 1389.2L499.4 1389.8Q499.2 1388.9 498.8 1388.3Q498.4 1387.6 497.7 1387.3Q497.1 1386.9 496.2 1386.8Q495.4 1386.6 494.3 1386.6L494.3 1386.6Q491.9 1386.6 490.7 1387.3Q489.5 1387.9 489.5 1389.3L489.5 1389.3Q489.5 1390.3 490.0 1390.8Q490.5 1391.3 491.4 1391.7Q492.3 1392.0 493.5 1392.3Q494.8 1392.5 496.3 1392.9L496.3 1392.9Q498.1 1393.3 499.9 1393.8Q501.7 1394.4 503.0 1395.3Q504.4 1396.2 505.3 1397.6Q506.1 1399.1 506.1 1401.3ZM535.4 1409L528.8 1409Q528.7 1408.8 528.7 1408.3Q528.6 1407.8 528.5 1407.2Q528.5 1406.5 528.4 1405.9Q528.4 1405.2 528.4 1404.7L528.4 1404.7L528.3 1404.7Q527.1 1407.3 525.0 1408.4Q522.8 1409.5 519.9 1409.5L519.9 1409.5Q517.4 1409.5 515.5 1408.5Q513.7 1407.4 512.5 1405.6Q511.4 1403.8 510.8 1401.3Q510.2 1398.8 510.2 1395.8L510.2 1395.8Q510.2 1392.8 510.8 1390.3Q511.4 1387.8 512.6 1386.0Q513.9 1384.1 515.8 1383.1Q517.7 1382.1 520.4 1382.1L520.4 1382.1Q521.7 1382.1 522.9 1382.4Q524.1 1382.6 525.1 1383.2Q526.1 1383.8 526.9 1384.6Q527.8 1385.5 528.3 1386.8L528.3 1386.8L528.4 1386.8Q528.4 1386.5 528.4 1386.0Q528.4 1385.6 528.4 1385.0Q528.4 1384.3 528.4 1383.7Q528.3 1383.0 528.3 1382.4L528.3 1382.4L528.3 1372.8L535.2 1372.8L535.2 1403.2Q535.2 1405.2 535.3 1406.7Q535.4 1408.2 535.4 1409L535.4 1409ZM528.4 1395.6L528.4 1395.6Q528.4 1393.0 528.0 1391.3Q527.5 1389.6 526.7 1388.6Q525.9 1387.6 524.9 1387.2Q523.9 1386.8 522.8 1386.8L522.8 1386.8Q521.5 1386.8 520.5 1387.3Q519.5 1387.8 518.8 1388.9Q518.1 1390.0 517.7 1391.7Q517.4 1393.4 517.4 1395.8L517.4 1395.8Q517.4 1404.8 522.8 1404.8L522.8 1404.8Q523.8 1404.8 524.8 1404.4Q525.8 1403.9 526.6 1402.9Q527.4 1401.8 527.9 1400.1Q528.4 1398.3 528.4 1395.6ZM555.4 1387.2L550.2 1387.2L550.2 1409L543.4 1409L543.4 1387.2L539.6 1387.2L539.6 1382.6L543.4 1382.6L543.4 1379.8Q543.4 1378.3 543.8 1377.0Q544.1 1375.7 545.0 1374.8Q545.9 1373.8 547.4 1373.3Q548.9 1372.8 551.1 1372.8L551.1 1372.8Q552.3 1372.8 553.4 1372.9Q554.5 1373.0 555.4 1373.2L555.4 1373.2L555.4 1377.6Q555.0 1377.5 554.5 1377.4Q553.9 1377.4 553.4 1377.4L553.4 1377.4Q552.5 1377.4 551.9 1377.6Q551.2 1377.8 550.9 1378.1Q550.5 1378.5 550.4 1379.1Q550.2 1379.7 550.2 1380.5L550.2 1380.5L550.2 1382.6L555.4 1382.6L555.4 1387.2Z M564.6 1409.5L564.6 1409.5Q562.7 1409.5 561.2 1409.0Q559.7 1408.4 558.6 1407.4Q557.6 1406.4 557.0 1404.9Q556.5 1403.4 556.5 1401.5L556.5 1401.5Q556.5 1399.2 557.3 1397.6Q558.1 1396.0 559.5 1395.0Q560.9 1394.0 562.8 1393.6Q564.7 1393.1 566.9 1393.1L566.9 1393.1L572.6 1393.0L572.6 1391.6Q572.6 1390.2 572.3 1389.2Q572.1 1388.3 571.6 1387.7Q571.1 1387.1 570.4 1386.8Q569.6 1386.5 568.7 1386.5L568.7 1386.5Q567.9 1386.5 567.2 1386.7Q566.5 1386.9 566.0 1387.3Q565.5 1387.7 565.2 1388.5Q564.9 1389.2 564.8 1390.3L564.8 1390.3L557.7 1389.9Q558.0 1388.2 558.7 1386.8Q559.5 1385.3 560.9 1384.3Q562.3 1383.2 564.3 1382.7Q566.3 1382.1 569.0 1382.1L569.0 1382.1Q571.5 1382.1 573.4 1382.7Q575.3 1383.3 576.7 1384.5Q578.0 1385.7 578.7 1387.5Q579.4 1389.2 579.4 1391.6L579.4 1391.6L579.4 1401.2Q579.4 1402.1 579.5 1402.8Q579.6 1403.6 579.8 1404.1Q580.1 1404.6 580.5 1404.8Q580.9 1405.1 581.6 1405.1L581.6 1405.1Q582.4 1405.1 583.1 1404.9L583.1 1404.9L583.1 1408.7Q582.5 1408.8 582.0 1408.9Q581.5 1409.0 581.0 1409.1Q580.6 1409.2 580.0 1409.2Q579.5 1409.3 578.7 1409.3L578.7 1409.3Q576.1 1409.3 574.9 1408.0Q573.7 1406.8 573.4 1404.3L573.4 1404.3L573.3 1404.3Q571.9 1406.8 569.8 1408.1Q567.6 1409.5 564.6 1409.5ZM572.6 1398.1L572.6 1396.8L569.1 1396.8Q568.0 1396.9 567.0 1397.0Q566.0 1397.1 565.2 1397.6Q564.5 1398.0 564.1 1398.8Q563.6 1399.6 563.6 1401.0L563.6 1401.0Q563.6 1402.9 564.5 1403.8Q565.4 1404.7 566.8 1404.7L566.8 1404.7Q568.1 1404.7 569.2 1404.1Q570.3 1403.6 571.0 1402.7Q571.7 1401.7 572.2 1400.6Q572.6 1399.4 572.6 1398.1L572.6 1398.1ZM608.6 1401.3L608.6 1401.3Q608.6 1403.2 607.8 1404.7Q607.0 1406.2 605.5 1407.3Q604.0 1408.3 601.8 1408.9Q599.6 1409.5 596.7 1409.5L596.7 1409.5Q594.2 1409.5 592.2 1409.1Q590.2 1408.8 588.7 1407.9Q587.1 1407.1 586.1 1405.7Q585.1 1404.4 584.6 1402.4L584.6 1402.4L590.6 1401.5Q590.9 1402.6 591.4 1403.3Q591.9 1404.0 592.7 1404.3Q593.4 1404.7 594.4 1404.8Q595.5 1404.9 596.7 1404.9L596.7 1404.9Q597.9 1404.9 598.9 1404.8Q599.9 1404.7 600.7 1404.3Q601.4 1404.0 601.9 1403.4Q602.3 1402.8 602.3 1401.9L602.3 1401.9Q602.3 1400.9 601.7 1400.3Q601.1 1399.7 600.0 1399.3Q599.0 1398.9 597.6 1398.7Q596.2 1398.4 594.6 1398.0L594.6 1398.0Q592.9 1397.6 591.3 1397.1Q589.7 1396.6 588.4 1395.7Q587.2 1394.9 586.4 1393.5Q585.6 1392.2 585.6 1390.1L585.6 1390.1Q585.6 1388.2 586.3 1386.7Q587.1 1385.2 588.5 1384.2Q589.9 1383.2 592.0 1382.6Q594.1 1382.1 596.8 1382.1L596.8 1382.1Q598.9 1382.1 600.8 1382.5Q602.7 1382.9 604.1 1383.7Q605.6 1384.6 606.6 1386.0Q607.6 1387.3 608.0 1389.2L608.0 1389.2L601.9 1389.8Q601.7 1388.9 601.3 1388.3Q600.8 1387.6 600.2 1387.3Q599.5 1386.9 598.7 1386.8Q597.8 1386.6 596.8 1386.6L596.8 1386.6Q594.4 1386.6 593.1 1387.3Q591.9 1387.9 591.9 1389.3L591.9 1389.3Q591.9 1390.3 592.4 1390.8Q592.9 1391.3 593.8 1391.7Q594.7 1392.0 596.0 1392.3Q597.3 1392.5 598.8 1392.9L598.8 1392.9Q600.6 1393.3 602.4 1393.8Q604.1 1394.4 605.5 1395.3Q606.9 1396.2 607.7 1397.6Q608.6 1399.1 608.6 1401.3ZM637.9 1409L631.2 1409Q631.2 1408.8 631.1 1408.3Q631.0 1407.8 631.0 1407.2Q630.9 1406.5 630.9 1405.9Q630.9 1405.2 630.9 1404.7L630.9 1404.7L630.8 1404.7Q629.6 1407.3 627.4 1408.4Q625.3 1409.5 622.3 1409.5L622.3 1409.5Q619.8 1409.5 618.0 1408.5Q616.2 1407.4 615.0 1405.6Q613.8 1403.8 613.2 1401.3Q612.7 1398.8 612.7 1395.8L612.7 1395.8Q612.7 1392.8 613.3 1390.3Q613.9 1387.8 615.1 1386.0Q616.4 1384.1 618.3 1383.1Q620.2 1382.1 622.8 1382.1L622.8 1382.1Q624.1 1382.1 625.3 1382.4Q626.5 1382.6 627.5 1383.2Q628.6 1383.8 629.4 1384.6Q630.2 1385.5 630.8 1386.8L630.8 1386.8L630.9 1386.8Q630.9 1386.5 630.8 1386.0Q630.8 1385.6 630.8 1385.0Q630.8 1384.3 630.8 1383.7Q630.8 1383.0 630.8 1382.4L630.8 1382.4L630.8 1372.8L637.7 1372.8L637.7 1403.2Q637.7 1405.2 637.7 1406.7Q637.8 1408.2 637.9 1409L637.9 1409ZM630.9 1395.6L630.9 1395.6Q630.9 1393.0 630.4 1391.3Q629.9 1389.6 629.1 1388.6Q628.3 1387.6 627.3 1387.2Q626.3 1386.8 625.3 1386.8L625.3 1386.8Q623.9 1386.8 622.9 1387.3Q621.9 1387.8 621.2 1388.9Q620.5 1390.0 620.2 1391.7Q619.8 1393.4 619.8 1395.8L619.8 1395.8Q619.8 1404.8 625.2 1404.8L625.2 1404.8Q626.2 1404.8 627.3 1404.4Q628.3 1403.9 629.1 1402.9Q629.9 1401.8 630.4 1400.1Q630.9 1398.3 630.9 1395.6ZM657.9 1387.2L652.7 1387.2L652.7 1409L645.9 1409L645.9 1387.2L642.0 1387.2L642.0 1382.6L645.9 1382.6L645.9 1379.8Q645.9 1378.3 646.2 1377.0Q646.6 1375.7 647.5 1374.8Q648.4 1373.8 649.8 1373.3Q651.3 1372.8 653.6 1372.8L653.6 1372.8Q654.7 1372.8 655.9 1372.9Q657.0 1373.0 657.9 1373.2L657.9 1373.2L657.9 1377.6Q657.5 1377.5 656.9 1377.4Q656.4 1377.4 655.9 1377.4L655.9 1377.4Q655.0 1377.4 654.3 1377.6Q653.7 1377.8 653.4 1378.1Q653.0 1378.5 652.9 1379.1Q652.7 1379.7 652.7 1380.5L652.7 1380.5L652.7 1382.6L657.9 1382.6L657.9 1387.2Z " stroke-width="20px" stroke="black" stroke-linejoin="round" paint-order="stroke"/></g></svg>