<svg width="1080" height="1920" viewBox="0 0 1080 1920" xmlns="http://www.w3.org/2000/svg"><mask id="satori_om-id"><rect x="0" y="0" width="1080" height="1920" fill="#fff"/></mask><mask id="satori_om-id-0"><rect x="0" y="0" width="1080" height="1920" fill="#fff"/></mask><mask id="satori_om-id-0-0"><rect x="0" y="1108" width="1080" height="812" fill="#fff"/></mask><path fill="white" d="M259.2 1353.8L259.2 1353.8Q257.3 1353.8 255.8 1353.2Q254.3 1352.7 253.3 1351.7Q252.2 1350.7 251.7 1349.2Q251.1 1347.7 251.1 1345.8L251.1 1345.8Q251.1 1343.4 251.9 1341.9Q252.7 1340.3 254.2 1339.3Q255.6 1338.3 257.5 1337.8Q259.4 1337.4 261.5 1337.3L261.5 1337.3L267.2 1337.2L267.2 1335.9Q267.2 1334.5 267.0 1333.5Q266.7 1332.5 266.2 1331.9Q265.7 1331.3 265.0 1331.1Q264.3 1330.8 263.4 1330.8L263.4 1330.8Q262.5 1330.8 261.8 1331.0Q261.2 1331.1 260.7 1331.6Q260.2 1332.0 259.9 1332.7Q259.6 1333.4 259.5 1334.5L259.5 1334.5L252.3 1334.2Q252.6 1332.5 253.4 1331.0Q254.2 1329.6 255.5 1328.6Q256.9 1327.5 258.9 1326.9Q260.9 1326.4 263.7 1326.4L263.7 1326.4Q266.1 1326.4 268.1 1327.0Q270.0 1327.6 271.3 1328.8Q272.7 1330.0 273.4 1331.8Q274.1 1333.5 274.1 1335.8L274.1 1335.8L274.1 1345.5Q274.1 1346.4 274.2 1347.1Q274.3 1347.8 274.5 1348.3Q274.7 1348.8 275.1 1349.1Q275.6 1349.4 276.3 1349.4L276.3 1349.4Q277.0 1349.4 277.8 1349.2L277.8 1349.2L277.8 1352.9Q277.2 1353.1 276.7 1353.2Q276.2 1353.3 275.7 1353.4Q275.2 1353.5 274.7 1353.5Q274.1 1353.6 273.4 1353.6L273.4 1353.6Q270.8 1353.6 269.6 1352.3Q268.3 1351.0 268.1 1348.6L268.1 1348.6L267.9 1348.6Q266.6 1351.0 264.4 1352.4Q262.3 1353.8 259.2 1353.8ZM267.2 1342.4L267.2 1341.0L263.7 1341.1Q262.6 1341.1 261.6 1341.3Q260.6 1341.4 259.9 1341.8Q259.1 1342.3 258.7 1343.1Q258.3 1343.9 258.3 1345.3L258.3 1345.3Q258.3 1347.1 259.1 1348.1Q260.0 1349.0 261.4 1349.0L261.4 1349.0Q262.8 1349.0 263.8 1348.4Q264.9 1347.8 265.6 1346.9Q266.4 1346.0 266.8 1344.8Q267.2 1343.6 267.2 1342.4L267.2 1342.4ZM303.2 1345.5L303.2 1345.5Q303.2 1347.5 302.4 1349.0Q301.6 1350.5 300.1 1351.5Q298.6 1352.6 296.4 1353.2Q294.2 1353.8 291.4 1353.8L291.4 1353.8Q288.9 1353.8 286.9 1353.4Q284.8 1353.0 283.3 1352.2Q281.8 1351.3 280.7 1350.0Q279.7 1348.6 279.2 1346.7L279.2 1346.7L285.2 1345.8Q285.5 1346.9 286.0 1347.6Q286.6 1348.2 287.3 1348.6Q288.1 1349.0 289.1 1349.1Q290.1 1349.2 291.4 1349.2L291.4 1349.2Q292.6 1349.2 293.6 1349.1Q294.6 1348.9 295.3 1348.6Q296.1 1348.3 296.5 1347.7Q296.9 1347.1 296.9 1346.2L296.9 1346.2Q296.9 1345.2 296.3 1344.6Q295.7 1344.0 294.7 1343.6Q293.6 1343.2 292.2 1342.9Q290.8 1342.6 289.2 1342.3L289.2 1342.3Q287.6 1341.9 286.0 1341.4Q284.4 1340.9 283.1 1340.0Q281.8 1339.1 281.0 1337.8Q280.3 1336.4 280.3 1334.3L280.3 1334.3Q280.3 1332.5 281.0 1331.0Q281.7 1329.5 283.1 1328.5Q284.6 1327.4 286.6 1326.9Q288.7 1326.3 291.4 1326.3L291.4 1326.3Q293.6 1326.3 295.4 1326.7Q297.3 1327.1 298.8 1328.0Q300.2 1328.9 301.2 1330.2Q302.2 1331.6 302.6 1333.5L302.6 1333.5L296.5 1334.1Q296.3 1333.1 295.9 1332.5Q295.5 1331.9 294.8 1331.5Q294.2 1331.2 293.3 1331.0Q292.5 1330.9 291.4 1330.9L291.4 1330.9Q289.0 1330.9 287.8 1331.5Q286.6 1332.1 286.6 1333.6L286.6 1333.6Q286.6 1334.5 287.1 1335.1Q287.6 1335.6 288.5 1335.9Q289.4 1336.3 290.6 1336.6Q291.9 1336.8 293.4 1337.2L293.4 1337.2Q295.2 1337.6 297.0 1338.1Q298.8 1338.6 300.1 1339.5Q301.5 1340.4 302.4 1341.9Q303.2 1343.3 303.2 1345.5ZM332.5 1353.3L325.9 1353.3Q325.8 1353.1 325.8 1352.6Q325.7 1352.1 325.6 1351.4Q325.6 1350.8 325.5 1350.1Q325.5 1349.5 325.5 1349.0L325.5 1349.0L325.4 1349.0Q324.2 1351.5 322.1 1352.6Q319.9 1353.8 317.0 1353.8L317.0 1353.8Q314.5 1353.8 312.6 1352.7Q310.8 1351.7 309.6 1349.9Q308.5 1348.0 307.9 1345.5Q307.3 1343.0 307.3 1340.1L307.3 1340.1Q307.3 1337.1 307.9 1334.6Q308.5 1332.0 309.8 1330.2Q311.0 1328.4 312.9 1327.4Q314.8 1326.4 317.5 1326.4L317.5 1326.4Q318.8 1326.4 320.0 1326.6Q321.2 1326.9 322.2 1327.5Q323.2 1328.0 324.0 1328.9Q324.9 1329.8 325.4 1331.0L325.4 1331.0L325.5 1331.0Q325.5 1330.8 325.5 1330.3Q325.5 1329.8 325.5 1329.2Q325.5 1328.6 325.5 1327.9Q325.4 1327.3 325.4 1326.7L325.4 1326.7L325.4 1317.0L332.3 1317.0L332.3 1347.5Q332.3 1349.4 332.4 1350.9Q332.5 1352.4 332.5 1353.3L332.5 1353.3ZM325.5 1339.9L325.5 1339.9Q325.5 1337.3 325.1 1335.6Q324.6 1333.9 323.8 1332.8Q323.0 1331.8 322.0 1331.4Q321.0 1331.0 319.9 1331.0L319.9 1331.0Q318.6 1331.0 317.6 1331.5Q316.6 1332.0 315.9 1333.1Q315.2 1334.2 314.8 1336.0Q314.5 1337.7 314.5 1340.1L314.5 1340.1Q314.5 1349.1 319.9 1349.1L319.9 1349.1Q320.9 1349.1 321.9 1348.6Q322.9 1348.2 323.7 1347.1Q324.5 1346.1 325.0 1344.3Q325.5 1342.5 325.5 1339.9ZM352.5 1331.5L347.3 1331.5L347.3 1353.3L340.5 1353.3L340.5 1331.5L336.7 1331.5L336.7 1326.8L340.5 1326.8L340.5 1324.1Q340.5 1322.6 340.9 1321.3Q341.2 1320.0 342.1 1319.1Q343.0 1318.1 344.5 1317.6Q346.0 1317.0 348.2 1317.0L348.2 1317.0Q349.4 1317.0 350.5 1317.2Q351.6 1317.3 352.5 1317.4L352.5 1317.4L352.5 1321.8Q352.1 1321.7 351.6 1321.7Q351.0 1321.6 350.5 1321.6L350.5 1321.6Q349.6 1321.6 349.0 1321.8Q348.3 1322.0 348.0 1322.4Q347.6 1322.8 347.5 1323.4Q347.3 1324.0 347.3 1324.8L347.3 1324.8L347.3 1326.8L352.5 1326.8L352.5 1331.5Z M375.9 1353.8L375.9 1353.8Q374.0 1353.8 372.5 1353.2Q371.0 1352.7 370.0 1351.7Q368.9 1350.7 368.4 1349.2Q367.8 1347.7 367.8 1345.8L367.8 1345.8Q367.8 1343.4 368.6 1341.9Q369.4 1340.3 370.9 1339.3Q372.3 1338.3 374.2 1337.8Q376.1 1337.4 378.2 1337.3L378.2 1337.3L383.9 1337.2L383.9 1335.9Q383.9 1334.5 383.7 1333.5Q383.4 1332.5 382.9 1331.9Q382.4 1331.3 381.7 1331.1Q381.0 1330.8 380.1 1330.8L380.1 1330.8Q379.2 1330.8 378.5 1331.0Q377.9 1331.1 377.4 1331.6Q376.9 1332.0 376.6 1332.7Q376.3 1333.4 376.2 1334.5L376.2 1334.5L369.0 1334.2Q369.3 1332.5 370.1 1331.0Q370.9 1329.6 372.2 1328.6Q373.6 1327.5 375.6 1326.9Q377.6 1326.4 380.4 1326.4L380.4 1326.4Q382.8 1326.4 384.8 1327.0Q386.7 1327.6 388.0 1328.8Q389.4 1330.0 390.1 1331.8Q390.8 1333.5 390.8 1335.8L390.8 1335.8L390.8 1345.5Q390.8 1346.4 390.9 1347.1Q391.0 1347.8 391.2 1348.3Q391.4 1348.8 391.8 1349.1Q392.3 1349.4 393.0 1349.4L393.0 1349.4Q393.7 1349.4 394.5 1349.2L394.5 1349.2L394.5 1352.9Q393.9 1353.1 393.4 1353.2Q392.9 1353.3 392.4 1353.4Q391.9 1353.5 391.4 1353.5Q390.8 1353.6 390.1 1353.6L390.1 1353.6Q387.5 1353.6 386.3 1352.3Q385.0 1351.0 384.8 1348.6L384.8 1348.6L384.6 1348.6Q383.3 1351.0 381.1 1352.4Q379.0 1353.8 375.9 1353.8ZM383.9 1342.4L383.9 1341.0L380.4 1341.1Q379.3 1341.1 378.3 1341.3Q377.3 1341.4 376.6 1341.8Q375.8 1342.3 375.4 1343.1Q375.0 1343.9 375.0 1345.3L375.0 1345.3Q375.0 1347.1 375.8 1348.1Q376.7 1349.0 378.1 1349.0L378.1 1349.0Q379.5 1349.0 380.5 1348.4Q381.6 1347.8 382.3 1346.9Q383.1 1346.0 383.5 1344.8Q383.9 1343.6 383.9 1342.4L383.9 1342.4ZM419.9 1345.5L419.9 1345.5Q419.9 1347.5 419.1 1349.0Q418.3 1350.5 416.8 1351.5Q415.3 1352.6 413.1 1353.2Q410.9 1353.8 408.1 1353.8L408.1 1353.8Q405.6 1353.8 403.5 1353.4Q401.5 1353.0 400.0 1352.2Q398.5 1351.3 397.4 1350.0Q396.4 1348.6 395.9 1346.7L395.9 1346.7L401.9 1345.8Q402.2 1346.9 402.7 1347.6Q403.3 1348.2 404.0 1348.6Q404.8 1349.0 405.8 1349.1Q406.8 1349.2 408.1 1349.2L408.1 1349.2Q409.3 1349.2 410.3 1349.1Q411.3 1348.9 412.0 1348.6Q412.8 1348.3 413.2 1347.7Q413.6 1347.1 413.6 1346.2L413.6 1346.2Q413.6 1345.2 413.0 1344.6Q412.4 1344.0 411.4 1343.6Q410.3 1343.2 408.9 1342.9Q407.5 1342.6 405.9 1342.3L405.9 1342.3Q404.3 1341.9 402.7 1341.4Q401.1 1340.9 399.8 1340.0Q398.5 1339.1 397.7 1337.8Q397.0 1336.4 397.0 1334.3L397.0 1334.3Q397.0 1332.5 397.7 1331.0Q398.4 1329.5 399.8 1328.5Q401.3 1327.4 403.3 1326.9Q405.4 1326.3 408.1 1326.3L408.1 1326.3Q410.3 1326.3 412.1 1326.7Q414.0 1327.1 415.5 1328.0Q416.9 1328.9 417.9 1330.2Q418.9 1331.6 419.3 1333.5L419.3 1333.5L413.2 1334.1Q413.0 1333.1 412.6 1332.5Q412.2 1331.9 411.5 1331.5Q410.9 1331.2 410.0 1331.0Q409.2 1330.9 408.1 1330.9L408.1 1330.9Q405.7 1330.9 404.5 1331.5Q403.3 1332.1 403.3 1333.6L403.3 1333.6Q403.3 1334.5 403.8 1335.1Q404.3 1335.6 405.2 1335.9Q406.1 1336.3 407.3 1336.6Q408.6 1336.8 410.1 1337.2L410.1 1337.2Q411.9 1337.6 413.7 1338.1Q415.5 1338.6 416.8 1339.5Q418.2 1340.4 419.1 1341.9Q419.9 1343.3 419.9 1345.5ZM449.2 1353.3L442.6 1353.3Q442.5 1353.1 442.5 1352.6Q442.4 1352.1 442.3 1351.4Q442.3 1350.8 442.2 1350.1Q442.2 1349.5 442.2 1349.0L442.2 1349.0L442.1 1349.0Q440.9 1351.5 438.8 1352.6Q436.6 1353.8 433.7 1353.8L433.7 1353.8Q431.2 1353.8 429.3 1352.7Q427.5 1351.7 426.3 1349.9Q425.2 1348.0 424.6 1345.5Q424.0 1343.0 424.0 1340.1L424.0 1340.1Q424.0 1337.1 424.6 1334.6Q425.2 1332.0 426.5 1330.2Q427.7 1328.4 429.6 1327.4Q431.5 1326.4 434.2 1326.4L434.2 1326.4Q435.5 1326.4 436.7 1326.6Q437.9 1326.9 438.9 1327.5Q439.9 1328.0 440.7 1328.9Q441.6 1329.8 442.1 1331.0L442.1 1331.0L442.2 1331.0Q442.2 1330.8 442.2 1330.3Q442.2 1329.8 442.2 1329.2Q442.2 1328.6 442.2 1327.9Q442.1 1327.3 442.1 1326.7L442.1 1326.7L442.1 1317.0L449.0 1317.0L449.0 1347.5Q449.0 1349.4 449.1 1350.9Q449.2 1352.4 449.2 1353.3L449.2 1353.3ZM442.2 1339.9L442.2 1339.9Q442.2 1337.3 441.8 1335.6Q441.3 1333.9 440.5 1332.8Q439.7 1331.8 438.7 1331.4Q437.7 1331.0 436.6 1331.0L436.6 1331.0Q435.3 1331.0 434.3 1331.5Q433.3 1332.0 432.6 1333.1Q431.9 1334.2 431.5 1336.0Q431.2 1337.7 431.2 1340.1L431.2 1340.1Q431.2 1349.1 436.6 1349.1L436.6 1349.1Q437.6 1349.1 438.6 1348.6Q439.6 1348.2 440.4 1347.1Q441.2 1346.1 441.7 1344.3Q442.2 1342.5 442.2 1339.9ZM469.2 1331.5L464.0 1331.5L464.0 1353.3L457.2 1353.3L457.2 1331.5L453.4 1331.5L453.4 1326.8L457.2 1326.8L457.2 1324.1Q457.2 1322.6 457.6 1321.3Q457.9 1320.0 458.8 1319.1Q459.7 1318.1 461.2 1317.6Q462.7 1317.0 464.9 1317.0L464.9 1317.0Q466.1 1317.0 467.2 1317.2Q468.3 1317.3 469.2 1317.4L469.2 1317.4L469.2 1321.8Q468.8 1321.7 468.3 1321.7Q467.7 1321.6 467.2 1321.6L467.2 1321.6Q466.3 1321.6 465.7 1321.8Q465.0 1322.0 464.7 1322.4Q464.3 1322.8 464.2 1323.4Q464.0 1324.0 464.0 1324.8L464.0 1324.8L464.0 1326.8L469.2 1326.8L469.2 1331.5ZM478.7 1353.8L478.7 1353.8Q476.8 1353.8 475.3 1353.2Q473.8 1352.7 472.8 1351.7Q471.7 1350.7 471.2 1349.2Q470.6 1347.7 470.6 1345.8L470.6 1345.8Q470.6 1343.4 471.4 1341.9Q472.3 1340.3 473.7 1339.3Q475.1 1338.3 477.0 1337.8Q478.9 1337.4 481.0 1337.3L481.0 1337.3L486.7 1337.2L486.7 1335.9Q486.7 1334.5 486.5 1333.5Q486.2 1332.5 485.7 1331.9Q485.2 1331.3 484.5 1331.1Q483.8 1330.8 482.9 1330.8L482.9 1330.8Q482.0 1330.8 481.3 1331.0Q480.7 1331.1 480.2 1331.6Q479.7 1332.0 479.4 1332.7Q479.1 1333.4 479.0 1334.5L479.0 1334.5L471.8 1334.2Q472.1 1332.5 472.9 1331.0Q473.7 1329.6 475.0 1328.6Q476.4 1327.5 478.4 1326.9Q480.5 1326.4 483.2 1326.4L483.2 1326.4Q485.6 1326.4 487.6 1327.0Q489.5 1327.6 490.8 1328.8Q492.2 1330.0 492.9 1331.8Q493.6 1333.5 493.6 1335.8L493.6 1335.8L493.6 1345.5Q493.6 1346.4 493.7 1347.1Q493.8 1347.8 494.0 1348.3Q494.2 1348.8 494.7 1349.1Q495.1 1349.4 495.8 1349.4L495.8 1349.4Q496.5 1349.4 497.3 1349.2L497.3 1349.2L497.3 1352.9Q496.7 1353.1 496.2 1353.2Q495.7 1353.3 495.2 1353.4Q494.7 1353.5 494.2 1353.5Q493.6 1353.6 492.9 1353.6L492.9 1353.6Q490.3 1353.6 489.1 1352.3Q487.8 1351.0 487.6 1348.6L487.6 1348.6L487.4 1348.6Q486.1 1351.0 483.9 1352.4Q481.8 1353.8 478.7 1353.8ZM486.7 1342.4L486.7 1341.0L483.2 1341.1Q482.1 1341.1 481.1 1341.3Q480.1 1341.4 479.4 1341.8Q478.6 1342.3 478.2 1343.1Q477.8 1343.9 477.8 1345.3L477.8 1345.3Q477.8 1347.1 478.6 1348.1Q479.5 1349.0 480.9 1349.0L480.9 1349.0Q482.3 1349.0 483.3 1348.4Q484.4 1347.8 485.2 1346.9Q485.9 1346.0 486.3 1344.8Q486.7 1343.6 486.7 1342.4L486.7 1342.4ZM522.7 1345.5L522.7 1345.5Q522.7 1347.5 521.9 1349.0Q521.1 1350.5 519.6 1351.5Q518.1 1352.6 515.9 1353.2Q513.7 1353.8 510.9 1353.8L510.9 1353.8Q508.4 1353.8 506.4 1353.4Q504.3 1353.0 502.8 1352.2Q501.3 1351.3 500.3 1350.0Q499.2 1348.6 498.7 1346.7L498.7 1346.7L504.7 1345.8Q505.0 1346.9 505.6 1347.6Q506.1 1348.2 506.8 1348.6Q507.6 1349.0 508.6 1349.1Q509.6 1349.2 510.9 1349.2L510.9 1349.2Q512.1 1349.2 513.1 1349.1Q514.1 1348.9 514.8 1348.6Q515.6 1348.3 516.0 1347.7Q516.4 1347.1 516.4 1346.2L516.4 1346.2Q516.4 1345.2 515.8 1344.6Q515.2 1344.0 514.2 1343.6Q513.1 1343.2 511.7 1342.9Q510.3 1342.6 508.8 1342.3L508.8 1342.3Q507.1 1341.9 505.5 1341.4Q503.9 1340.9 502.6 1340.0Q501.3 1339.1 500.5 1337.8Q499.8 1336.4 499.8 1334.3L499.8 1334.3Q499.8 1332.5 500.5 1331.0Q501.2 1329.5 502.6 1328.5Q504.1 1327.4 506.1 1326.9Q508.2 1326.3 510.9 1326.3L510.9 1326.3Q513.1 1326.3 515.0 1326.7Q516.8 1327.1 518.3 1328.0Q519.7 1328.9 520.7 1330.2Q521.7 1331.6 522.1 1333.5L522.1 1333.5L516.0 1334.1Q515.9 1333.1 515.4 1332.5Q515.0 1331.9 514.3 1331.5Q513.7 1331.2 512.8 1331.0Q512.0 1330.9 510.9 1330.9L510.9 1330.9Q508.5 1330.9 507.3 1331.5Q506.1 1332.1 506.1 1333.6L506.1 1333.6Q506.1 1334.5 506.6 1335.1Q507.1 1335.6 508.0 1335.9Q508.9 1336.3 510.2 1336.6Q511.4 1336.8 512.9 1337.2L512.9 1337.2Q514.7 1337.6 516.5 1338.1Q518.3 1338.6 519.7 1339.5Q521.0 1340.4 521.9 1341.9Q522.7 1343.3 522.7 1345.5ZM552.0 1353.3L545.4 1353.3Q545.3 1353.1 545.3 1352.6Q545.2 1352.1 545.1 1351.4Q545.1 1350.8 545.0 1350.1Q545.0 1349.5 545.0 1349.0L545.0 1349.0L544.9 1349.0Q543.7 1351.5 541.6 1352.6Q539.4 1353.8 536.5 1353.8L536.5 1353.8Q534.0 1353.8 532.2 1352.7Q530.3 1351.7 529.1 1349.9Q528.0 1348.0 527.4 1345.5Q526.8 1343.0 526.8 1340.1L526.8 1340.1Q526.8 1337.1 527.4 1334.6Q528.0 1332.0 529.3 1330.2Q530.5 1328.4 532.4 1327.4Q534.3 1326.4 537.0 1326.4L537.0 1326.4Q538.3 1326.4 539.5 1326.6Q540.7 1326.9 541.7 1327.5Q542.7 1328.0 543.5 1328.9Q544.4 1329.8 545.0 1331.0L545.0 1331.0L545.0 1331.0Q545.0 1330.8 545.0 1330.3Q545.0 1329.8 545.0 1329.2Q545.0 1328.6 545.0 1327.9Q545.0 1327.3 545.0 1326.7L545.0 1326.7L545.0 1317.0L551.8 1317.0L551.8 1347.5Q551.8 1349.4 551.9 1350.9Q552.0 1352.4 552.0 1353.3L552.0 1353.3ZM545.1 1339.9L545.1 1339.9Q545.1 1337.3 544.6 1335.6Q544.1 1333.9 543.3 1332.8Q542.5 1331.8 541.5 1331.4Q540.5 1331.0 539.4 1331.0L539.4 1331.0Q538.1 1331.0 537.1 1331.5Q536.1 1332.0 535.4 1333.1Q534.7 1334.2 534.3 1336.0Q534.0 1337.7 534.0 1340.1L534.0 1340.1Q534.0 1349.1 539.4 1349.1L539.4 1349.1Q540.4 1349.1 541.4 1348.6Q542.4 1348.2 543.2 1347.1Q544.1 1346.1 544.6 1344.3Q545.1 1342.5 545.1 1339.9ZM572.1 1331.5L566.9 1331.5L566.9 1353.3L560.0 1353.3L560.0 1331.5L556.2 1331.5L556.2 1326.8L560.0 1326.8L560.0 1324.1Q560.0 1322.6 560.4 1321.3Q560.8 1320.0 561.6 1319.1Q562.5 1318.1 564.0 1317.6Q565.5 1317.0 567.7 1317.0L567.7 1317.0Q568.9 1317.0 570.0 1317.2Q571.2 1317.3 572.1 1317.4L572.1 1317.4L572.1 1321.8Q571.6 1321.7 571.1 1321.7Q570.5 1321.6 570.1 1321.6L570.1 1321.6Q569.1 1321.6 568.5 1321.8Q567.9 1322.0 567.5 1322.4Q567.1 1322.8 567.0 1323.4Q566.9 1324.0 566.9 1324.8L566.9 1324.8L566.9 1326.8L572.1 1326.8L572.1 1331.5Z M595.4 1353.8L595.4 1353.8Q593.5 1353.8 592.0 1353.2Q590.5 1352.7 589.5 1351.7Q588.4 1350.7 587.9 1349.2Q587.3 1347.7 587.3 1345.8L587.3 1345.8Q587.3 1343.4 588.1 1341.9Q589.0 1340.3 590.4 1339.3Q591.8 1338.3 593.7 1337.8Q595.6 1337.4 597.7 1337.3L597.7 1337.3L603.4 1337.2L603.4 1335.9Q603.4 1334.5 603.2 1333.5Q602.9 1332.5 602.4 1331.9Q601.9 1331.3 601.2 1331.1Q600.5 1330.8 599.6 1330.8L599.6 1330.8Q598.7 1330.8 598.0 1331.0Q597.4 1331.1 596.9 1331.6Q596.4 1332.0 596.1 1332.7Q595.8 1333.4 595.7 1334.5L595.7 1334.5L588.5 1334.2Q588.8 1332.5 589.6 1331.0Q590.4 1329.6 591.7 1328.6Q593.1 1327.5 595.1 1326.9Q597.2 1326.4 599.9 1326.4L599.9 1326.4Q602.3 1326.4 604.3 1327.0Q606.2 1327.6 607.5 1328.8Q608.9 1330.0 609.6 1331.8Q610.3 1333.5 610.3 1335.8L610.3 1335.8L610.3 1345.5Q610.3 1346.4 610.4 1347.1Q610.5 1347.8 610.7 1348.3Q610.9 1348.8 611.4 1349.1Q611.8 1349.4 612.5 1349.4L612.5 1349.4Q613.2 1349.4 614.0 1349.2L614.0 1349.2L614.0 1352.9Q613.4 1353.1 612.9 1353.2Q612.4 1353.3 611.9 1353.4Q611.4 1353.5 610.9 1353.5Q610.3 1353.6 609.6 1353.6L609.6 1353.6Q607.0 1353.6 605.8 1352.3Q604.5 1351.0 604.3 1348.6L604.3 1348.6L604.1 1348.6Q602.8 1351.0 600.6 1352.4Q598.5 1353.8 595.4 1353.8ZM603.4 1342.4L603.4 1341.0L599.9 1341.1Q598.8 1341.1 597.8 1341.3Q596.8 1341.4 596.1 1341.8Q595.3 1342.3 594.9 1343.1Q594.5 1343.9 594.5 1345.3L594.5 1345.3Q594.5 1347.1 595.3 1348.1Q596.2 1349.0 597.6 1349.0L597.6 1349.0Q599.0 1349.0 600.0 1348.4Q601.1 1347.8 601.9 1346.9Q602.6 1346.0 603.0 1344.8Q603.4 1343.6 603.4 1342.4L603.4 1342.4ZM639.4 1345.5L639.4 1345.5Q639.4 1347.5 638.6 1349.0Q637.8 1350.5 636.3 1351.5Q634.8 1352.6 632.6 1353.2Q630.4 1353.8 627.6 1353.8L627.6 1353.8Q625.1 1353.8 623.1 1353.4Q621.0 1353.0 619.5 1352.2Q618.0 1351.3 617.0 1350.0Q615.9 1348.6 615.4 1346.7L615.4 1346.7L621.4 1345.8Q621.7 1346.9 622.3 1347.6Q622.8 1348.2 623.5 1348.6Q624.3 1349.0 625.3 1349.1Q626.3 1349.2 627.6 1349.2L627.6 1349.2Q628.8 1349.2 629.8 1349.1Q630.8 1348.9 631.5 1348.6Q632.3 1348.3 632.7 1347.7Q633.1 1347.1 633.1 1346.2L633.1 1346.2Q633.1 1345.2 632.5 1344.6Q631.9 1344.0 630.9 1343.6Q629.8 1343.2 628.4 1342.9Q627.0 1342.6 625.4 1342.3L625.4 1342.3Q623.8 1341.9 622.2 1341.4Q620.6 1340.9 619.3 1340.0Q618.0 1339.1 617.2 1337.8Q616.5 1336.4 616.5 1334.3L616.5 1334.3Q616.5 1332.5 617.2 1331.0Q617.9 1329.5 619.3 1328.5Q620.8 1327.4 622.8 1326.9Q624.9 1326.3 627.6 1326.3L627.6 1326.3Q629.8 1326.3 631.7 1326.7Q633.5 1327.1 635.0 1328.0Q636.4 1328.9 637.4 1330.2Q638.4 1331.6 638.8 1333.5L638.8 1333.5L632.7 1334.1Q632.6 1333.1 632.1 1332.5Q631.7 1331.9 631.0 1331.5Q630.4 1331.2 629.5 1331.0Q628.7 1330.9 627.6 1330.9L627.6 1330.9Q625.2 1330.9 624.0 1331.5Q622.8 1332.1 622.8 1333.6L622.8 1333.6Q622.8 1334.5 623.3 1335.1Q623.8 1335.6 624.7 1335.9Q625.6 1336.3 626.9 1336.6Q628.1 1336.8 629.6 1337.2L629.6 1337.2Q631.4 1337.6 633.2 1338.1Q635.0 1338.6 636.4 1339.5Q637.7 1340.4 638.6 1341.9Q639.4 1343.3 639.4 1345.5ZM668.7 1353.3L662.1 1353.3Q662.0 1353.1 662.0 1352.6Q661.9 1352.1 661.8 1351.4Q661.8 1350.8 661.7 1350.1Q661.7 1349.5 661.7 1349.0L661.7 1349.0L661.6 1349.0Q660.4 1351.5 658.3 1352.6Q656.1 1353.8 653.2 1353.8L653.2 1353.8Q650.7 1353.8 648.9 1352.7Q647.0 1351.7 645.8 1349.9Q644.7 1348.0 644.1 1345.5Q643.5 1343.0 643.5 1340.1L643.5 1340.1Q643.5 1337.1 644.1 1334.6Q644.7 1332.0 646.0 1330.2Q647.2 1328.4 649.1 1327.4Q651.0 1326.4 653.7 1326.4L653.7 1326.4Q655.0 1326.4 656.2 1326.6Q657.4 1326.9 658.4 1327.5Q659.4 1328.0 660.2 1328.9Q661.1 1329.8 661.7 1331.0L661.7 1331.0L661.7 1331.0Q661.7 1330.8 661.7 1330.3Q661.7 1329.8 661.7 1329.2Q661.7 1328.6 661.7 1327.9Q661.7 1327.3 661.7 1326.7L661.7 1326.7L661.7 1317.0L668.5 1317.0L668.5 1347.5Q668.5 1349.4 668.6 1350.9Q668.7 1352.4 668.7 1353.3L668.7 1353.3ZM661.8 1339.9L661.8 1339.9Q661.8 1337.3 661.3 1335.6Q660.8 1333.9 660.0 1332.8Q659.2 1331.8 658.2 1331.4Q657.2 1331.0 656.1 1331.0L656.1 1331.0Q654.8 1331.0 653.8 1331.5Q652.8 1332.0 652.1 1333.1Q651.4 1334.2 651.0 1336.0Q650.7 1337.7 650.7 1340.1L650.7 1340.1Q650.7 1349.1 656.1 1349.1L656.1 1349.1Q657.1 1349.1 658.1 1348.6Q659.1 1348.2 659.9 1347.1Q660.8 1346.1 661.3 1344.3Q661.8 1342.5 661.8 1339.9ZM688.8 1331.5L683.6 1331.5L683.6 1353.3L676.7 1353.3L676.7 1331.5L672.9 1331.5L672.9 1326.8L676.7 1326.8L676.7 1324.1Q676.7 1322.6 677.1 1321.3Q677.5 1320.0 678.3 1319.1Q679.2 1318.1 680.7 1317.6Q682.2 1317.0 684.4 1317.0L684.4 1317.0Q685.6 1317.0 686.7 1317.2Q687.9 1317.3 688.8 1317.4L688.8 1317.4L688.8 1321.8Q688.3 1321.7 687.8 1321.7Q687.2 1321.6 686.8 1321.6L686.8 1321.6Q685.8 1321.6 685.2 1321.8Q684.6 1322.0 684.2 1322.4Q683.8 1322.8 683.7 1323.4Q683.6 1324.0 683.6 1324.8L683.6 1324.8L683.6 1326.8L688.8 1326.8L688.8 1331.5Z M712.1 1353.8L712.1 1353.8Q710.2 1353.8 708.7 1353.2Q707.2 1352.7 706.2 1351.7Q705.1 1350.7 704.6 1349.2Q704.0 1347.7 704.0 1345.8L704.0 1345.8Q704.0 1343.4 704.8 1341.9Q705.6 1340.3 707.1 1339.3Q708.5 1338.3 710.4 1337.8Q712.3 1337.4 714.4 1337.3L714.4 1337.3L720.1 1337.2L720.1 1335.9Q720.1 1334.5 719.9 1333.5Q719.6 1332.5 719.1 1331.9Q718.6 1331.3 717.9 1331.1Q717.2 1330.8 716.3 1330.8L716.3 1330.8Q715.4 1330.8 714.7 1331.0Q714.1 1331.1 713.6 1331.6Q713.1 1332.0 712.8 1332.7Q712.5 1333.4 712.4 1334.5L712.4 1334.5L705.2 1334.2Q705.5 1332.5 706.3 1331.0Q707.1 1329.6 708.4 1328.6Q709.8 1327.5 711.8 1326.9Q713.9 1326.4 716.6 1326.4L716.6 1326.4Q719.0 1326.4 721.0 1327.0Q722.9 1327.6 724.2 1328.8Q725.6 1330.0 726.3 1331.8Q727.0 1333.5 727.0 1335.8L727.0 1335.8L727.0 1345.5Q727.0 1346.4 727.1 1347.1Q727.2 1347.8 727.4 1348.3Q727.6 1348.8 728.0 1349.1Q728.5 1349.4 729.2 1349.4L729.2 1349.4Q729.9 1349.4 730.7 1349.2L730.7 1349.2L730.7 1352.9Q730.1 1353.1 729.6 1353.2Q729.1 1353.3 728.6 1353.4Q728.1 1353.5 727.6 1353.5Q727.0 1353.6 726.3 1353.6L726.3 1353.6Q723.7 1353.6 722.5 1352.3Q721.2 1351.0 721.0 1348.6L721.0 1348.6L720.8 1348.6Q719.5 1351.0 717.3 1352.4Q715.2 1353.8 712.1 1353.8ZM720.1 1342.4L720.1 1341.0L716.6 1341.1Q715.5 1341.1 714.5 1341.3Q713.5 1341.4 712.8 1341.8Q712.0 1342.3 711.6 1343.1Q711.2 1343.9 711.2 1345.3L711.2 1345.3Q711.2 1347.1 712.0 1348.1Q712.9 1349.0 714.3 1349.0L714.3 1349.0Q715.7 1349.0 716.7 1348.4Q717.8 1347.8 718.6 1346.9Q719.3 1346.0 719.7 1344.8Q720.1 1343.6 720.1 1342.4L720.1 1342.4ZM747.1 1331.5L741.9 1331.5L741.9 1353.3L735.1 1353.3L735.1 1331.5L731.2 1331.5L731.2 1326.8L735.1 1326.8L735.1 1324.1Q735.1 1322.6 735.4 1321.3Q735.8 1320.0 736.7 1319.1Q737.6 1318.1 739.0 1317.6Q740.5 1317.0 742.8 1317.0L742.8 1317.0Q743.9 1317.0 745.1 1317.2Q746.2 1317.3 747.1 1317.4L747.1 1317.4L747.1 1321.8Q746.7 1321.7 746.1 1321.7Q745.6 1321.6 745.1 1321.6L745.1 1321.6Q744.2 1321.6 743.5 1321.8Q742.9 1322.0 742.6 1322.4Q742.2 1322.8 742.1 1323.4Q741.9 1324.0 741.9 1324.8L741.9 1324.8L741.9 1326.8L747.1 1326.8L747.1 1331.5ZM756.6 1353.8L756.6 1353.8Q754.7 1353.8 753.2 1353.2Q751.7 1352.7 750.6 1351.7Q749.6 1350.7 749.0 1349.2Q748.5 1347.7 748.5 1345.8L748.5 1345.8Q748.5 1343.4 749.3 1341.9Q750.1 1340.3 751.5 1339.3Q752.9 1338.3 754.8 1337.8Q756.7 1337.4 758.9 1337.3L758.9 1337.3L764.6 1337.2L764.6 1335.9Q764.6 1334.5 764.3 1333.5Q764.1 1332.5 763.6 1331.9Q763.1 1331.3 762.4 1331.1Q761.7 1330.8 760.7 1330.8L760.7 1330.8Q759.9 1330.8 759.2 1331.0Q758.5 1331.1 758.0 1331.6Q757.6 1332.0 757.2 1332.7Q756.9 1333.4 756.8 1334.5L756.8 1334.5L749.7 1334.2Q750.0 1332.5 750.7 1331.0Q751.5 1329.6 752.9 1328.6Q754.3 1327.5 756.3 1326.9Q758.3 1326.4 761.0 1326.4L761.0 1326.4Q763.5 1326.4 765.4 1327.0Q767.3 1327.6 768.7 1328.8Q770.0 1330.0 770.7 1331.8Q771.4 1333.5 771.4 1335.8L771.4 1335.8L771.4 1345.5Q771.4 1346.4 771.5 1347.1Q771.6 1347.8 771.8 1348.3Q772.1 1348.8 772.5 1349.1Q772.9 1349.4 773.6 1349.4L773.6 1349.4Q774.4 1349.4 775.1 1349.2L775.1 1349.2L775.1 1352.9Q774.5 1353.1 774.0 1353.2Q773.5 1353.3 773.1 1353.4Q772.6 1353.5 772.0 1353.5Q771.5 1353.6 770.7 1353.6L770.7 1353.6Q768.1 1353.6 766.9 1352.3Q765.7 1351.0 765.4 1348.6L765.4 1348.6L765.3 1348.6Q763.9 1351.0 761.8 1352.4Q759.7 1353.8 756.6 1353.8ZM764.6 1342.4L764.6 1341.0L761.1 1341.1Q760.0 1341.1 759.0 1341.3Q758.0 1341.4 757.2 1341.8Q756.5 1342.3 756.1 1343.1Q755.6 1343.9 755.6 1345.3L755.6 1345.3Q755.6 1347.1 756.5 1348.1Q757.4 1349.0 758.8 1349.0L758.8 1349.0Q760.1 1349.0 761.2 1348.4Q762.3 1347.8 763.0 1346.9Q763.8 1346.0 764.2 1344.8Q764.6 1343.6 764.6 1342.4L764.6 1342.4ZM813.8 1326.8L806.9 1353.3L799.6 1353.3L795.4 1337.2Q795.2 1336.4 795.0 1335.5Q794.8 1334.5 794.7 1333.7L794.7 1333.7L794.3 1331.7Q794.3 1331.7 793.8 1333.7L793.8 1333.7Q793.6 1334.5 793.4 1335.5Q793.2 1336.4 793.0 1337.2L793.0 1337.2L788.8 1353.3L781.5 1353.3L774.7 1326.8L781.1 1326.8L784.5 1342.4Q784.6 1343.0 784.8 1343.9Q784.9 1344.7 785.1 1345.4L785.1 1345.4Q785.3 1346.2 785.5 1347.0L785.5 1347.0Q785.6 1346.1 785.8 1345.2L785.8 1345.2Q785.9 1344.5 786.1 1343.7Q786.3 1342.9 786.4 1342.4L786.4 1342.4L790.6 1326.8L797.9 1326.8L802.0 1342.4Q802.1 1343.0 802.3 1343.8Q802.5 1344.6 802.6 1345.3L802.6 1345.3Q802.8 1346.2 803.0 1347.0L803.0 1347.0Q803.2 1346.2 803.3 1345.3L803.3 1345.3Q803.5 1344.6 803.6 1343.8Q803.8 1343.0 804.0 1342.4L804.0 1342.4L807.5 1326.8L813.8 1326.8ZM830.5 1331.5L825.3 1331.5L825.3 1353.3L818.4 1353.3L818.4 1331.5L814.6 1331.5L814.6 1326.8L818.4 1326.8L818.4 1324.1Q818.4 1322.6 818.8 1321.3Q819.2 1320.0 820.0 1319.1Q820.9 1318.1 822.4 1317.6Q823.9 1317.0 826.1 1317.0L826.1 1317.0Q827.3 1317.0 828.4 1317.2Q829.6 1317.3 830.5 1317.4L830.5 1317.4L830.5 1321.8Q830.0 1321.7 829.5 1321.7Q828.9 1321.6 828.5 1321.6L828.5 1321.6Q827.5 1321.6 826.9 1321.8Q826.3 1322.0 825.9 1322.4Q825.5 1322.8 825.4 1323.4Q825.3 1324.0 825.3 1324.8L825.3 1324.8L825.3 1326.8L830.5 1326.8L830.5 1331.5Z M267.8 1382.7L260.8 1409.1L253.6 1409.1L249.4 1393.0Q249.2 1392.3 249.0 1391.3Q248.8 1390.4 248.6 1389.5L248.6 1389.5L248.2 1387.6Q248.2 1387.6 247.8 1389.5L247.8 1389.5Q247.6 1390.4 247.4 1391.3Q247.2 1392.3 247.0 1393.1L247.0 1393.1L242.7 1409.1L235.5 1409.1L228.6 1382.7L235.1 1382.7L238.4 1398.2Q238.6 1398.9 238.7 1399.7Q238.9 1400.5 239.1 1401.2L239.1 1401.2Q239.2 1402.1 239.4 1402.9L239.4 1402.9Q239.6 1402.0 239.8 1401.1L239.8 1401.1Q239.9 1400.3 240.1 1399.6Q240.3 1398.8 240.4 1398.2L240.4 1398.2L244.5 1382.7L251.9 1382.7L255.9 1398.2Q256.1 1398.9 256.3 1399.7Q256.4 1400.5 256.6 1401.2L256.6 1401.2Q256.8 1402.0 256.9 1402.9L256.9 1402.9Q257.1 1402.0 257.3 1401.2L257.3 1401.2Q257.4 1400.5 257.6 1399.7Q257.8 1398.9 257.9 1398.2L257.9 1398.2L261.4 1382.7L267.8 1382.7ZM277.3 1409.6L277.3 1409.6Q275.4 1409.6 273.9 1409.1Q272.4 1408.6 271.3 1407.5Q270.3 1406.5 269.7 1405.0Q269.1 1403.6 269.1 1401.7L269.1 1401.7Q269.1 1399.3 270.0 1397.7Q270.8 1396.1 272.2 1395.1Q273.6 1394.1 275.5 1393.7Q277.4 1393.2 279.6 1393.2L279.6 1393.2L285.3 1393.1L285.3 1391.8Q285.3 1390.3 285.0 1389.4Q284.7 1388.4 284.3 1387.8Q283.8 1387.2 283.0 1386.9Q282.3 1386.7 281.4 1386.7L281.4 1386.7Q280.5 1386.7 279.9 1386.8Q279.2 1387.0 278.7 1387.4Q278.2 1387.9 277.9 1388.6Q277.6 1389.3 277.5 1390.4L277.5 1390.4L270.3 1390.1Q270.6 1388.3 271.4 1386.9Q272.2 1385.5 273.6 1384.4Q274.9 1383.4 277.0 1382.8Q279.0 1382.2 281.7 1382.2L281.7 1382.2Q284.2 1382.2 286.1 1382.8Q288.0 1383.4 289.4 1384.6Q290.7 1385.9 291.4 1387.6Q292.1 1389.4 292.1 1391.7L292.1 1391.7L292.1 1401.3Q292.1 1402.2 292.2 1403.0Q292.3 1403.7 292.5 1404.2Q292.7 1404.7 293.2 1405.0Q293.6 1405.2 294.3 1405.2L294.3 1405.2Q295.1 1405.2 295.8 1405.1L295.8 1405.1L295.8 1408.8Q295.2 1408.9 294.7 1409.0Q294.2 1409.2 293.7 1409.2Q293.2 1409.3 292.7 1409.4Q292.1 1409.4 291.4 1409.4L291.4 1409.4Q288.8 1409.4 287.6 1408.1Q286.4 1406.9 286.1 1404.4L286.1 1404.4L286.0 1404.4Q284.6 1406.9 282.5 1408.2Q280.3 1409.6 277.3 1409.6ZM285.3 1398.2L285.3 1396.9L281.7 1396.9Q280.6 1397.0 279.6 1397.1Q278.7 1397.3 277.9 1397.7Q277.2 1398.1 276.7 1398.9Q276.3 1399.7 276.3 1401.1L276.3 1401.1Q276.3 1403.0 277.2 1403.9Q278.0 1404.8 279.5 1404.8L279.5 1404.8Q280.8 1404.8 281.9 1404.3Q282.9 1403.7 283.7 1402.8Q284.4 1401.9 284.8 1400.7Q285.3 1399.5 285.3 1398.2L285.3 1398.2Z M326.1 1387.3L320.9 1387.3L320.9 1409.1L314.1 1409.1L314.1 1387.3L310.2 1387.3L310.2 1382.7L314.1 1382.7L314.1 1379.9Q314.1 1378.4 314.5 1377.2Q314.8 1375.9 315.7 1374.9Q316.6 1374.0 318.1 1373.4Q319.6 1372.9 321.8 1372.9L321.8 1372.9Q322.9 1372.9 324.1 1373.0Q325.2 1373.1 326.1 1373.3L326.1 1373.3L326.1 1377.7Q325.7 1377.6 325.1 1377.5Q324.6 1377.5 324.1 1377.5L324.1 1377.5Q323.2 1377.5 322.5 1377.7Q321.9 1377.9 321.6 1378.3Q321.2 1378.7 321.1 1379.3Q320.9 1379.9 320.9 1380.6L320.9 1380.6L320.9 1382.7L326.1 1382.7L326.1 1387.3ZM365.0 1382.7L358.1 1409.1L350.8 1409.1L346.6 1393.0Q346.4 1392.3 346.2 1391.3Q346.0 1390.4 345.9 1389.5L345.9 1389.5L345.5 1387.6Q345.5 1387.6 345.0 1389.5L345.0 1389.5Q344.8 1390.4 344.6 1391.3Q344.4 1392.3 344.2 1393.1L344.2 1393.1L340.0 1409.1L332.7 1409.1L325.9 1382.7L332.3 1382.7L335.7 1398.2Q335.8 1398.9 336.0 1399.7Q336.2 1400.5 336.3 1401.2L336.3 1401.2Q336.5 1402.1 336.7 1402.9L336.7 1402.9Q336.8 1402.0 337.0 1401.1L337.0 1401.1Q337.2 1400.3 337.3 1399.6Q337.5 1398.8 337.6 1398.2L337.6 1398.2L341.8 1382.7L349.1 1382.7L353.2 1398.2Q353.3 1398.9 353.5 1399.7Q353.7 1400.5 353.8 1401.2L353.8 1401.2Q354.0 1402.0 354.2 1402.9L354.2 1402.9Q354.4 1402.0 354.5 1401.2L354.5 1401.2Q354.7 1400.5 354.9 1399.7Q355.0 1398.9 355.2 1398.2L355.2 1398.2L358.7 1382.7L365.0 1382.7ZM374.5 1409.6L374.5 1409.6Q372.6 1409.6 371.1 1409.1Q369.6 1408.6 368.6 1407.5Q367.5 1406.5 366.9 1405.0Q366.4 1403.6 366.4 1401.7L366.4 1401.7Q366.4 1399.3 367.2 1397.7Q368.0 1396.1 369.4 1395.1Q370.8 1394.1 372.8 1393.7Q374.7 1393.2 376.8 1393.2L376.8 1393.2L382.5 1393.1L382.5 1391.8Q382.5 1390.3 382.2 1389.4Q382.0 1388.4 381.5 1387.8Q381.0 1387.2 380.3 1386.9Q379.6 1386.7 378.6 1386.7L378.6 1386.7Q377.8 1386.7 377.1 1386.8Q376.4 1387.0 375.9 1387.4Q375.5 1387.9 375.2 1388.6Q374.9 1389.3 374.7 1390.4L374.7 1390.4L367.6 1390.1Q367.9 1388.3 368.6 1386.9Q369.4 1385.5 370.8 1384.4Q372.2 1383.4 374.2 1382.8Q376.2 1382.2 378.9 1382.2L378.9 1382.2Q381.4 1382.2 383.3 1382.8Q385.3 1383.4 386.6 1384.6Q387.9 1385.9 388.6 1387.6Q389.4 1389.4 389.4 1391.7L389.4 1391.7L389.4 1401.3Q389.4 1402.2 389.4 1403.0Q389.5 1403.7 389.8 1404.2Q390.0 1404.7 390.4 1405.0Q390.8 1405.2 391.5 1405.2L391.5 1405.2Q392.3 1405.2 393.0 1405.1L393.0 1405.1L393.0 1408.8Q392.4 1408.9 391.9 1409.0Q391.5 1409.2 391.0 1409.2Q390.5 1409.3 389.9 1409.4Q389.4 1409.4 388.6 1409.4L388.6 1409.4Q386.1 1409.4 384.8 1408.1Q383.6 1406.9 383.3 1404.4L383.3 1404.4L383.2 1404.4Q381.8 1406.9 379.7 1408.2Q377.6 1409.6 374.5 1409.6ZM382.5 1398.2L382.5 1396.9L379.0 1396.9Q377.9 1397.0 376.9 1397.1Q375.9 1397.3 375.2 1397.7Q374.4 1398.1 374.0 1398.9Q373.5 1399.7 373.5 1401.1L373.5 1401.1Q373.5 1403.0 374.4 1403.9Q375.3 1404.8 376.7 1404.8L376.7 1404.8Q378.0 1404.8 379.1 1404.3Q380.2 1403.7 380.9 1402.8Q381.7 1401.9 382.1 1400.7Q382.5 1399.5 382.5 1398.2L382.5 1398.2ZM431.7 1382.7L424.8 1409.1L417.5 1409.1L413.3 1393.0Q413.1 1392.3 412.9 1391.3Q412.7 1390.4 412.6 1389.5L412.6 1389.5L412.2 1387.6Q412.2 1387.6 411.7 1389.5L411.7 1389.5Q411.5 1390.4 411.3 1391.3Q411.1 1392.3 410.9 1393.1L410.9 1393.1L406.7 1409.1L399.4 1409.1L392.6 1382.7L399.0 1382.7L402.4 1398.2Q402.5 1398.9 402.7 1399.7Q402.9 1400.5 403.0 1401.2L403.0 1401.2Q403.2 1402.1 403.4 1402.9L403.4 1402.9Q403.5 1402.0 403.7 1401.1L403.7 1401.1Q403.9 1400.3 404.0 1399.6Q404.2 1398.8 404.3 1398.2L404.3 1398.2L408.5 1382.7L415.8 1382.7L419.9 1398.2Q420.0 1398.9 420.2 1399.7Q420.4 1400.5 420.5 1401.2L420.5 1401.2Q420.7 1402.0 420.9 1402.9L420.9 1402.9Q421.1 1402.0 421.2 1401.2L421.2 1401.2Q421.4 1400.5 421.6 1399.7Q421.7 1398.9 421.9 1398.2L421.9 1398.2L425.4 1382.7L431.7 1382.7ZM445.9 1409.6L445.9 1409.6Q443.1 1409.6 440.8 1408.8Q438.5 1407.9 436.9 1406.2Q435.3 1404.5 434.4 1401.9Q433.6 1399.3 433.6 1395.8L433.6 1395.8Q433.6 1392.0 434.6 1389.4Q435.6 1386.8 437.3 1385.2Q439.0 1383.6 441.3 1382.9Q443.5 1382.2 446.0 1382.2L446.0 1382.2Q449.1 1382.2 451.4 1383.3Q453.6 1384.4 455.0 1386.3Q456.4 1388.3 457.1 1391.0Q457.7 1393.7 457.7 1397.0L457.7 1397.0L457.7 1397.2L440.8 1397.2Q440.8 1398.9 441.1 1400.3Q441.4 1401.8 442.0 1402.8Q442.7 1403.8 443.7 1404.4Q444.8 1405.0 446.3 1405.0L446.3 1405.0Q448.1 1405.0 449.2 1404.3Q450.4 1403.5 450.9 1401.9L450.9 1401.9L457.3 1402.4Q456.9 1403.6 456.1 1404.8Q455.3 1406.1 454.0 1407.2Q452.7 1408.2 450.7 1408.9Q448.7 1409.6 445.9 1409.6ZM445.9 1386.5L445.9 1386.5Q444.9 1386.5 444.0 1386.9Q443.0 1387.2 442.4 1388.0Q441.7 1388.8 441.3 1390.0Q440.9 1391.2 440.8 1392.9L440.8 1392.9L451.1 1392.9Q450.9 1389.7 449.5 1388.1Q448.2 1386.5 445.9 1386.5Z M482.9 1409.6L482.9 1409.6Q481.0 1409.6 479.5 1409.1Q478.0 1408.6 477.0 1407.5Q475.9 1406.5 475.3 1405.0Q474.8 1403.6 474.8 1401.7L474.8 1401.7Q474.8 1399.3 475.6 1397.7Q476.4 1396.1 477.8 1395.1Q479.2 1394.1 481.1 1393.7Q483.1 1393.2 485.2 1393.2L485.2 1393.2L490.9 1393.1L490.9 1391.8Q490.9 1390.3 490.6 1389.4Q490.4 1388.4 489.9 1387.8Q489.4 1387.2 488.7 1386.9Q488.0 1386.7 487.0 1386.7L487.0 1386.7Q486.2 1386.7 485.5 1386.8Q484.8 1387.0 484.3 1387.4Q483.9 1387.9 483.6 1388.6Q483.2 1389.3 483.1 1390.4L483.1 1390.4L476.0 1390.1Q476.3 1388.3 477.0 1386.9Q477.8 1385.5 479.2 1384.4Q480.6 1383.4 482.6 1382.8Q484.6 1382.2 487.3 1382.2L487.3 1382.2Q489.8 1382.2 491.7 1382.8Q493.6 1383.4 495.0 1384.6Q496.3 1385.9 497.0 1387.6Q497.8 1389.4 497.8 1391.7L497.8 1391.7L497.8 1401.3Q497.8 1402.2 497.8 1403.0Q497.9 1403.7 498.2 1404.2Q498.4 1404.7 498.8 1405.0Q499.2 1405.2 499.9 1405.2L499.9 1405.2Q500.7 1405.2 501.4 1405.1L501.4 1405.1L501.4 1408.8Q500.8 1408.9 500.3 1409.0Q499.9 1409.2 499.4 1409.2Q498.9 1409.3 498.3 1409.4Q497.8 1409.4 497.0 1409.4L497.0 1409.4Q494.5 1409.4 493.2 1408.1Q492.0 1406.9 491.7 1404.4L491.7 1404.4L491.6 1404.4Q490.2 1406.9 488.1 1408.2Q486.0 1409.6 482.9 1409.6ZM490.9 1398.2L490.9 1396.9L487.4 1396.9Q486.3 1397.0 485.3 1397.1Q484.3 1397.3 483.6 1397.7Q482.8 1398.1 482.4 1398.9Q481.9 1399.7 481.9 1401.1L481.9 1401.1Q481.9 1403.0 482.8 1403.9Q483.7 1404.8 485.1 1404.8L485.1 1404.8Q486.4 1404.8 487.5 1404.3Q488.6 1403.7 489.3 1402.8Q490.1 1401.9 490.5 1400.7Q490.9 1399.5 490.9 1398.2L490.9 1398.2ZM511.4 1409.6L511.4 1409.6Q508.3 1409.6 506.7 1407.9Q505.1 1406.3 505.1 1402.9L505.1 1402.9L505.1 1387.3L501.7 1387.3L501.7 1382.7L505.4 1382.7L507.6 1376.5L511.9 1376.5L511.9 1382.7L516.9 1382.7L516.9 1387.3L511.9 1387.3L511.9 1401.1Q511.9 1403.0 512.6 1403.9Q513.3 1404.8 514.9 1404.8L514.9 1404.8Q515.5 1404.8 516.0 1404.7Q516.5 1404.6 517.2 1404.5L517.2 1404.5L517.2 1408.7Q515.9 1409.1 514.5 1409.4Q513.1 1409.6 511.4 1409.6ZM556.8 1382.7L549.8 1409.1L542.6 1409.1L538.4 1393.0Q538.2 1392.3 538.0 1391.3Q537.8 1390.4 537.6 1389.5L537.6 1389.5L537.2 1387.6Q537.2 1387.6 536.8 1389.5L536.8 1389.5Q536.6 1390.4 536.4 1391.3Q536.2 1392.3 536.0 1393.1L536.0 1393.1L531.7 1409.1L524.5 1409.1L517.6 1382.7L524.1 1382.7L527.4 1398.2Q527.6 1398.9 527.7 1399.7Q527.9 1400.5 528.0 1401.2L528.0 1401.2Q528.2 1402.1 528.4 1402.9L528.4 1402.9Q528.6 1402.0 528.8 1401.1L528.8 1401.1Q528.9 1400.3 529.1 1399.6Q529.2 1398.8 529.4 1398.2L529.4 1398.2L533.5 1382.7L540.9 1382.7L544.9 1398.2Q545.1 1398.9 545.3 1399.7Q545.4 1400.5 545.6 1401.2L545.6 1401.2Q545.7 1402.0 545.9 1402.9L545.9 1402.9Q546.1 1402.0 546.3 1401.2L546.3 1401.2Q546.4 1400.5 546.6 1399.7Q546.8 1398.9 546.9 1398.2L546.9 1398.2L550.4 1382.7L556.8 1382.7ZM571.0 1409.6L571.0 1409.6Q568.1 1409.6 565.8 1408.8Q563.5 1407.9 561.9 1406.2Q560.3 1404.5 559.5 1401.9Q558.6 1399.3 558.6 1395.8L558.6 1395.8Q558.6 1392.0 559.6 1389.4Q560.6 1386.8 562.4 1385.2Q564.1 1383.6 566.3 1382.9Q568.6 1382.2 571.1 1382.2L571.1 1382.2Q574.2 1382.2 576.4 1383.3Q578.6 1384.4 580.0 1386.3Q581.4 1388.3 582.1 1391.0Q582.8 1393.7 582.8 1397.0L582.8 1397.0L582.8 1397.2L565.8 1397.2Q565.8 1398.9 566.1 1400.3Q566.4 1401.8 567.1 1402.8Q567.7 1403.8 568.8 1404.4Q569.8 1405.0 571.3 1405.0L571.3 1405.0Q573.1 1405.0 574.3 1404.3Q575.4 1403.5 575.9 1401.9L575.9 1401.9L582.4 1402.4Q581.9 1403.6 581.1 1404.8Q580.3 1406.1 579.0 1407.2Q577.7 1408.2 575.7 1408.9Q573.8 1409.6 571.0 1409.6ZM571.0 1386.5L571.0 1386.5Q569.9 1386.5 569.0 1386.9Q568.1 1387.2 567.4 1388.0Q566.7 1388.8 566.3 1390.0Q565.9 1391.2 565.9 1392.9L565.9 1392.9L576.1 1392.9Q575.9 1389.7 574.6 1388.1Q573.2 1386.5 571.0 1386.5ZM594.1 1409.6L594.1 1409.6Q592.2 1409.6 590.7 1409.1Q589.2 1408.6 588.1 1407.5Q587.1 1406.5 586.5 1405.0Q585.9 1403.6 585.9 1401.7L585.9 1401.7Q585.9 1399.3 586.8 1397.7Q587.6 1396.1 589.0 1395.1Q590.4 1394.1 592.3 1393.7Q594.2 1393.2 596.4 1393.2L596.4 1393.2L602.0 1393.1L602.0 1391.8Q602.0 1390.3 601.8 1389.4Q601.5 1388.4 601.0 1387.8Q600.6 1387.2 599.8 1386.9Q599.1 1386.7 598.2 1386.7L598.2 1386.7Q597.3 1386.7 596.7 1386.8Q596.0 1387.0 595.5 1387.4Q595.0 1387.9 594.7 1388.6Q594.4 1389.3 594.3 1390.4L594.3 1390.4L587.1 1390.1Q587.4 1388.3 588.2 1386.9Q589.0 1385.5 590.4 1384.4Q591.7 1383.4 593.8 1382.8Q595.8 1382.2 598.5 1382.2L598.5 1382.2Q600.9 1382.2 602.9 1382.8Q604.8 1383.4 606.1 1384.6Q607.5 1385.9 608.2 1387.6Q608.9 1389.4 608.9 1391.7L608.9 1391.7L608.9 1401.3Q608.9 1402.2 609.0 1403.0Q609.1 1403.7 609.3 1404.2Q609.5 1404.7 610.0 1405.0Q610.4 1405.2 611.1 1405.2L611.1 1405.2Q611.9 1405.2 612.6 1405.1L612.6 1405.1L612.6 1408.8Q612.0 1408.9 611.5 1409.0Q611.0 1409.2 610.5 1409.2Q610.0 1409.3 609.5 1409.4Q608.9 1409.4 608.2 1409.4L608.2 1409.4Q605.6 1409.4 604.4 1408.1Q603.1 1406.9 602.9 1404.4L602.9 1404.4L602.8 1404.4Q601.4 1406.9 599.3 1408.2Q597.1 1409.6 594.1 1409.6ZM602.0 1398.2L602.0 1396.9L598.5 1396.9Q597.4 1397.0 596.4 1397.1Q595.5 1397.3 594.7 1397.7Q594.0 1398.1 593.5 1398.9Q593.1 1399.7 593.1 1401.1L593.1 1401.1Q593.1 1403.0 594.0 1403.9Q594.8 1404.8 596.3 1404.8L596.3 1404.8Q597.6 1404.8 598.7 1404.3Q599.7 1403.7 600.5 1402.8Q601.2 1401.9 601.6 1400.7Q602.0 1399.5 602.0 1398.2L602.0 1398.2ZM622.5 1409.6L622.5 1409.6Q619.5 1409.6 617.9 1407.9Q616.2 1406.3 616.2 1402.9L616.2 1402.9L616.2 1387.3L612.9 1387.3L612.9 1382.7L616.6 1382.7L618.7 1376.5L623.0 1376.5L623.0 1382.7L628.0 1382.7L628.0 1387.3L623.0 1387.3L623.0 1401.1Q623.0 1403.0 623.8 1403.9Q624.5 1404.8 626.0 1404.8L626.0 1404.8Q626.7 1404.8 627.2 1404.7Q627.7 1404.6 628.3 1404.5L628.3 1404.5L628.3 1408.7Q627.0 1409.1 625.6 1409.4Q624.2 1409.6 622.5 1409.6Z M652.4 1409.6L652.4 1409.6Q650.5 1409.6 649.0 1409.1Q647.5 1408.6 646.5 1407.5Q645.4 1406.5 644.8 1405.0Q644.3 1403.6 644.3 1401.7L644.3 1401.7Q644.3 1399.3 645.1 1397.7Q645.9 1396.1 647.3 1395.1Q648.8 1394.1 650.7 1393.7Q652.6 1393.2 654.7 1393.2L654.7 1393.2L660.4 1393.1L660.4 1391.8Q660.4 1390.3 660.1 1389.4Q659.9 1388.4 659.4 1387.8Q658.9 1387.2 658.2 1386.9Q657.5 1386.7 656.5 1386.7L656.5 1386.7Q655.7 1386.7 655.0 1386.8Q654.3 1387.0 653.9 1387.4Q653.4 1387.9 653.1 1388.6Q652.8 1389.3 652.6 1390.4L652.6 1390.4L645.5 1390.1Q645.8 1388.3 646.6 1386.9Q647.3 1385.5 648.7 1384.4Q650.1 1383.4 652.1 1382.8Q654.1 1382.2 656.8 1382.2L656.8 1382.2Q659.3 1382.2 661.2 1382.8Q663.2 1383.4 664.5 1384.6Q665.8 1385.9 666.6 1387.6Q667.3 1389.4 667.3 1391.7L667.3 1391.7L667.3 1401.3Q667.3 1402.2 667.3 1403.0Q667.4 1403.7 667.7 1404.2Q667.9 1404.7 668.3 1405.0Q668.7 1405.2 669.4 1405.2L669.4 1405.2Q670.2 1405.2 670.9 1405.1L670.9 1405.1L670.9 1408.8Q670.3 1408.9 669.8 1409.0Q669.4 1409.2 668.9 1409.2Q668.4 1409.3 667.8 1409.4Q667.3 1409.4 666.6 1409.4L666.6 1409.4Q664.0 1409.4 662.7 1408.1Q661.5 1406.9 661.3 1404.4L661.3 1404.4L661.1 1404.4Q659.7 1406.9 657.6 1408.2Q655.5 1409.6 652.4 1409.6ZM660.4 1398.2L660.4 1396.9L656.9 1396.9Q655.8 1397.0 654.8 1397.1Q653.8 1397.3 653.1 1397.7Q652.3 1398.1 651.9 1398.9Q651.4 1399.7 651.4 1401.1L651.4 1401.1Q651.4 1403.0 652.3 1403.9Q653.2 1404.8 654.6 1404.8L654.6 1404.8Q655.9 1404.8 657.0 1404.3Q658.1 1403.7 658.8 1402.8Q659.6 1401.9 660.0 1400.7Q660.4 1399.5 660.4 1398.2L660.4 1398.2ZM709.6 1382.7L702.7 1409.1L695.4 1409.1L691.2 1393.0Q691.0 1392.3 690.8 1391.3Q690.6 1390.4 690.5 1389.5L690.5 1389.5L690.1 1387.6Q690.1 1387.6 689.6 1389.5L689.6 1389.5Q689.5 1390.4 689.2 1391.3Q689.0 1392.3 688.8 1393.1L688.8 1393.1L684.6 1409.1L677.3 1409.1L670.5 1382.7L676.9 1382.7L680.3 1398.2Q680.4 1398.9 680.6 1399.7Q680.8 1400.5 680.9 1401.2L680.9 1401.2Q681.1 1402.1 681.3 1402.9L681.3 1402.9Q681.4 1402.0 681.6 1401.1L681.6 1401.1Q681.8 1400.3 681.9 1399.6Q682.1 1398.8 682.2 1398.2L682.2 1398.2L686.4 1382.7L693.7 1382.7L697.8 1398.2Q697.9 1398.9 698.1 1399.7Q698.3 1400.5 698.4 1401.2L698.4 1401.2Q698.6 1402.0 698.8 1402.9L698.8 1402.9Q699.0 1402.0 699.1 1401.2L699.1 1401.2Q699.3 1400.5 699.5 1399.7Q699.6 1398.9 699.8 1398.2L699.8 1398.2L703.3 1382.7L709.6 1382.7ZM719.8 1409.6L719.8 1409.6Q716.7 1409.6 715.1 1407.9Q713.5 1406.3 713.5 1402.9L713.5 1402.9L713.5 1387.3L710.1 1387.3L710.1 1382.7L713.8 1382.7L716.0 1376.5L720.3 1376.5L720.3 1382.7L725.3 1382.7L725.3 1387.3L720.3 1387.3L720.3 1401.1Q720.3 1403.0 721.0 1403.9Q721.7 1404.8 723.3 1404.8L723.3 1404.8Q723.9 1404.8 724.4 1404.7Q724.9 1404.6 725.6 1404.5L725.6 1404.5L725.6 1408.7Q724.3 1409.1 722.9 1409.4Q721.5 1409.6 719.8 1409.6Z M749.7 1409.6L749.7 1409.6Q747.8 1409.6 746.3 1409.1Q744.7 1408.6 743.7 1407.5Q742.6 1406.5 742.1 1405.0Q741.5 1403.6 741.5 1401.7L741.5 1401.7Q741.5 1399.3 742.3 1397.7Q743.2 1396.1 744.6 1395.1Q746.0 1394.1 747.9 1393.7Q749.8 1393.2 752.0 1393.2L752.0 1393.2L757.6 1393.1L757.6 1391.8Q757.6 1390.3 757.4 1389.4Q757.1 1388.4 756.6 1387.8Q756.1 1387.2 755.4 1386.9Q754.7 1386.7 753.8 1386.7L753.8 1386.7Q752.9 1386.7 752.3 1386.8Q751.6 1387.0 751.1 1387.4Q750.6 1387.9 750.3 1388.6Q750.0 1389.3 749.9 1390.4L749.9 1390.4L742.7 1390.1Q743.0 1388.3 743.8 1386.9Q744.6 1385.5 746.0 1384.4Q747.3 1383.4 749.4 1382.8Q751.4 1382.2 754.1 1382.2L754.1 1382.2Q756.5 1382.2 758.5 1382.8Q760.4 1383.4 761.7 1384.6Q763.1 1385.9 763.8 1387.6Q764.5 1389.4 764.5 1391.7L764.5 1391.7L764.5 1401.3Q764.5 1402.2 764.6 1403.0Q764.7 1403.7 764.9 1404.2Q765.1 1404.7 765.6 1405.0Q766.0 1405.2 766.7 1405.2L766.7 1405.2Q767.5 1405.2 768.2 1405.1L768.2 1405.1L768.2 1408.8Q767.6 1408.9 767.1 1409.0Q766.6 1409.2 766.1 1409.2Q765.6 1409.3 765.1 1409.4Q764.5 1409.4 763.8 1409.4L763.8 1409.4Q761.2 1409.4 760.0 1408.1Q758.7 1406.9 758.5 1404.4L758.5 1404.4L758.3 1404.4Q757.0 1406.9 754.8 1408.2Q752.7 1409.6 749.7 1409.6ZM757.6 1398.2L757.6 1396.9L754.1 1396.9Q753.0 1397.0 752.0 1397.1Q751.0 1397.3 750.3 1397.7Q749.6 1398.1 749.1 1398.9Q748.7 1399.7 748.7 1401.1L748.7 1401.1Q748.7 1403.0 749.5 1403.9Q750.4 1404.8 751.9 1404.8L751.9 1404.8Q753.2 1404.8 754.2 1404.3Q755.3 1403.7 756.1 1402.8Q756.8 1401.9 757.2 1400.7Q757.6 1399.5 757.6 1398.2L757.6 1398.2ZM806.9 1382.7L799.9 1409.1L792.7 1409.1L788.5 1393.0Q788.3 1392.3 788.1 1391.3Q787.9 1390.4 787.7 1389.5L787.7 1389.5L787.3 1387.6Q787.3 1387.6 786.9 1389.5L786.9 1389.5Q786.7 1390.4 786.5 1391.3Q786.3 1392.3 786.1 1393.1L786.1 1393.1L781.8 1409.1L774.6 1409.1L767.7 1382.7L774.2 1382.7L777.5 1398.2Q777.7 1398.9 777.8 1399.7Q778.0 1400.5 778.1 1401.2L778.1 1401.2Q778.3 1402.1 778.5 1402.9L778.5 1402.9Q778.7 1402.0 778.9 1401.1L778.9 1401.1Q779.0 1400.3 779.2 1399.6Q779.3 1398.8 779.5 1398.2L779.5 1398.2L783.6 1382.7L791.0 1382.7L795.0 1398.2Q795.2 1398.9 795.4 1399.7Q795.5 1400.5 795.7 1401.2L795.7 1401.2Q795.8 1402.0 796.0 1402.9L796.0 1402.9Q796.2 1402.0 796.4 1401.2L796.4 1401.2Q796.5 1400.5 796.7 1399.7Q796.9 1398.9 797.0 1398.2L797.0 1398.2L800.5 1382.7L806.9 1382.7ZM821.1 1409.6L821.1 1409.6Q818.2 1409.6 815.9 1408.8Q813.6 1407.9 812.0 1406.2Q810.4 1404.5 809.6 1401.9Q808.7 1399.3 808.7 1395.8L808.7 1395.8Q808.7 1392.0 809.7 1389.4Q810.7 1386.8 812.5 1385.2Q814.2 1383.6 816.4 1382.9Q818.7 1382.2 821.2 1382.2L821.2 1382.2Q824.3 1382.2 826.5 1383.3Q828.7 1384.4 830.1 1386.3Q831.5 1388.3 832.2 1391.0Q832.9 1393.7 832.9 1397.0L832.9 1397.0L832.9 1397.2L815.9 1397.2Q815.9 1398.9 816.2 1400.3Q816.5 1401.8 817.2 1402.8Q817.8 1403.8 818.9 1404.4Q819.9 1405.0 821.4 1405.0L821.4 1405.0Q823.2 1405.0 824.4 1404.3Q825.5 1403.5 826.0 1401.9L826.0 1401.9L832.5 1402.4Q832.0 1403.6 831.2 1404.8Q830.4 1406.1 829.1 1407.2Q827.8 1408.2 825.8 1408.9Q823.9 1409.6 821.1 1409.6ZM821.1 1386.5L821.1 1386.5Q820.0 1386.5 819.1 1386.9Q818.2 1387.2 817.5 1388.0Q816.8 1388.8 816.4 1390.0Q816.0 1391.2 816.0 1392.9L816.0 1392.9L826.2 1392.9Q826.0 1389.7 824.7 1388.1Q823.3 1386.5 821.1 1386.5ZM844.8 1409.6L844.8 1409.6Q841.8 1409.6 840.2 1407.9Q838.5 1406.3 838.5 1402.9L838.5 1402.9L838.5 1387.3L835.2 1387.3L835.2 1382.7L838.9 1382.7L841.0 1376.5L845.3 1376.5L845.3 1382.7L850.3 1382.7L850.3 1387.3L845.3 1387.3L845.3 1401.1Q845.3 1403.0 846.0 1403.9Q846.8 1404.8 848.3 1404.8L848.3 1404.8Q848.9 1404.8 849.5 1404.7Q850.0 1404.6 850.6 1404.5L850.6 1404.5L850.6 1408.7Q849.3 1409.1 847.9 1409.4Q846.5 1409.6 844.8 1409.6Z " stroke-width="20px" stroke="black" stroke-linejoin="round" paint-order="stroke"/><mask id="satori_om-id-0-0-1"><rect x="860" y="1308" width="0" height="112" fill="#fff"/></mask><rect x="860" y="1308" width="0" height="112" fill="yellow"/><path fill="white" d="M887.2 1353.3L880.6 1353.3Q880.6 1353.1 880.5 1352.6Q880.4 1352.1 880.4 1351.4Q880.3 1350.8 880.3 1350.1Q880.2 1349.5 880.2 1349.0L880.2 1349.0L880.1 1349.0Q878.9 1351.5 876.8 1352.6Q874.7 1353.8 871.7 1353.8L871.7 1353.8Q869.2 1353.8 867.4 1352.7Q865.6 1351.7 864.4 1349.9Q863.2 1348.0 862.6 1345.5Q862.1 1343.0 862.1 1340.1L862.1 1340.1Q862.1 1337.1 862.6 1334.6Q863.2 1332.0 864.5 1330.2Q865.7 1328.4 867.7 1327.4Q869.6 1326.4 872.2 1326.4L872.2 1326.4Q873.5 1326.4 874.7 1326.6Q875.9 1326.9 876.9 1327.5Q877.9 1328.0 878.8 1328.9Q879.6 1329.8 880.2 1331.0L880.2 1331.0L880.2 1331.0Q880.2 1330.8 880.2 1330.3Q880.2 1329.8 880.2 1329.2Q880.2 1328.6 880.2 1327.9Q880.2 1327.3 880.2 1326.7L880.2 1326.7L880.2 1317.0L887.1 1317.0L887.1 1347.5Q887.1 1349.4 887.1 1350.9Q887.2 1352.4 887.2 1353.3L887.2 1353.3ZM880.3 1339.9L880.3 1339.9Q880.3 1337.3 879.8 1335.6Q879.3 1333.9 878.5 1332.8Q877.7 1331.8 876.7 1331.4Q875.7 1331.0 874.6 1331.0L874.6 1331.0Q873.3 1331.0 872.3 1331.5Q871.3 1332.0 870.6 1333.1Q869.9 1334.2 869.6 1336.0Q869.2 1337.7 869.2 1340.1L869.2 1340.1Q869.2 1349.1 874.6 1349.1L874.6 1349.1Q875.6 1349.1 876.7 1348.6Q877.7 1348.2 878.5 1347.1Q879.3 1346.1 879.8 1344.3Q880.3 1342.5 880.3 1339.9ZM900.1 1353.8L900.1 1353.8Q898.2 1353.8 896.7 1353.2Q895.2 1352.7 894.2 1351.7Q893.1 1350.7 892.6 1349.2Q892.0 1347.7 892.0 1345.8L892.0 1345.8Q892.0 1343.4 892.8 1341.9Q893.6 1340.3 895.1 1339.3Q896.5 1338.3 898.4 1337.8Q900.3 1337.4 902.4 1337.3L902.4 1337.3L908.1 1337.2L908.1 1335.9Q908.1 1334.5 907.9 1333.5Q907.6 1332.5 907.1 1331.9Q906.6 1331.3 905.9 1331.1Q905.2 1330.8 904.3 1330.8L904.3 1330.8Q903.4 1330.8 902.7 1331.0Q902.1 1331.1 901.6 1331.6Q901.1 1332.0 900.8 1332.7Q900.5 1333.4 900.4 1334.5L900.4 1334.5L893.2 1334.2Q893.5 1332.5 894.3 1331.0Q895.1 1329.6 896.4 1328.6Q897.8 1327.5 899.8 1326.9Q901.8 1326.4 904.6 1326.4L904.6 1326.4Q907.0 1326.4 909.0 1327.0Q910.9 1327.6 912.2 1328.8Q913.6 1330.0 914.3 1331.8Q915.0 1333.5 915.0 1335.8L915.0 1335.8L915.0 1345.5Q915.0 1346.4 915.1 1347.1Q915.2 1347.8 915.4 1348.3Q915.6 1348.8 916.0 1349.1Q916.5 1349.4 917.2 1349.4L917.2 1349.4Q917.9 1349.4 918.7 1349.2L918.7 1349.2L918.7 1352.9Q918.1 1353.1 917.6 1353.2Q917.1 1353.3 916.6 1353.4Q916.1 1353.5 915.6 1353.5Q915.0 1353.6 914.3 1353.6L914.3 1353.6Q911.7 1353.6 910.5 1352.3Q909.2 1351.0 909.0 1348.6L909.0 1348.6L908.8 1348.6Q907.5 1351.0 905.3 1352.4Q903.2 1353.8 900.1 1353.8ZM908.1 1342.4L908.1 1341.0L904.6 1341.1Q903.5 1341.1 902.5 1341.3Q901.5 1341.4 900.8 1341.8Q900.0 1342.3 899.6 1343.1Q899.2 1343.9 899.2 1345.3L899.2 1345.3Q899.2 1347.1 900.0 1348.1Q900.9 1349.0 902.3 1349.0L902.3 1349.0Q903.7 1349.0 904.7 1348.4Q905.8 1347.8 906.5 1346.9Q907.3 1346.0 907.7 1344.8Q908.1 1343.6 908.1 1342.4L908.1 1342.4ZM944.1 1345.5L944.1 1345.5Q944.1 1347.5 943.3 1349.0Q942.5 1350.5 941.0 1351.5Q939.5 1352.6 937.3 1353.2Q935.1 1353.8 932.3 1353.8L932.3 1353.8Q929.8 1353.8 927.7 1353.4Q925.7 1353.0 924.2 1352.2Q922.7 1351.3 921.6 1350.0Q920.6 1348.6 920.1 1346.7L920.1 1346.7L926.1 1345.8Q926.4 1346.9 926.9 1347.6Q927.5 1348.2 928.2 1348.6Q929.0 1349.0 930.0 1349.1Q931.0 1349.2 932.3 1349.2L932.3 1349.2Q933.5 1349.2 934.5 1349.1Q935.5 1348.9 936.2 1348.6Q937.0 1348.3 937.4 1347.7Q937.8 1347.1 937.8 1346.2L937.8 1346.2Q937.8 1345.2 937.2 1344.6Q936.6 1344.0 935.6 1343.6Q934.5 1343.2 933.1 1342.9Q931.7 1342.6 930.1 1342.3L930.1 1342.3Q928.5 1341.9 926.9 1341.4Q925.3 1340.9 924.0 1340.0Q922.7 1339.1 921.9 1337.8Q921.2 1336.4 921.2 1334.3L921.2 1334.3Q921.2 1332.5 921.9 1331.0Q922.6 1329.5 924.0 1328.5Q925.5 1327.4 927.5 1326.9Q929.6 1326.3 932.3 1326.3L932.3 1326.3Q934.5 1326.3 936.3 1326.7Q938.2 1327.1 939.7 1328.0Q941.1 1328.9 942.1 1330.2Q943.1 1331.6 943.5 1333.5L943.5 1333.5L937.4 1334.1Q937.2 1333.1 936.8 1332.5Q936.4 1331.9 935.7 1331.5Q935.1 1331.2 934.2 1331.0Q933.4 1330.9 932.3 1330.9L932.3 1330.9Q929.9 1330.9 928.7 1331.5Q927.5 1332.1 927.5 1333.6L927.5 1333.6Q927.5 1334.5 928.0 1335.1Q928.5 1335.6 929.4 1335.9Q930.3 1336.3 931.5 1336.6Q932.8 1336.8 934.3 1337.2L934.3 1337.2Q936.1 1337.6 937.9 1338.1Q939.7 1338.6 941.0 1339.5Q942.4 1340.4 943.3 1341.9Q944.1 1343.3 944.1 1345.5ZM973.4 1353.3L966.8 1353.3Q966.7 1353.1 966.7 1352.6Q966.6 1352.1 966.5 1351.4Q966.5 1350.8 966.4 1350.1Q966.4 1349.5 966.4 1349.0L966.4 1349.0L966.3 1349.0Q965.1 1351.5 963.0 1352.6Q960.8 1353.8 957.9 1353.8L957.9 1353.8Q955.4 1353.8 953.5 1352.7Q951.7 1351.7 950.5 1349.9Q949.4 1348.0 948.8 1345.5Q948.2 1343.0 948.2 1340.1L948.2 1340.1Q948.2 1337.1 948.8 1334.6Q949.4 1332.0 950.6 1330.2Q951.9 1328.4 953.8 1327.4Q955.7 1326.4 958.4 1326.4L958.4 1326.4Q959.7 1326.4 960.9 1326.6Q962.1 1326.9 963.1 1327.5Q964.1 1328.0 964.9 1328.9Q965.8 1329.8 966.3 1331.0L966.3 1331.0L966.4 1331.0Q966.4 1330.8 966.4 1330.3Q966.4 1329.8 966.4 1329.2Q966.4 1328.6 966.4 1327.9Q966.3 1327.3 966.3 1326.7L966.3 1326.7L966.3 1317.0L973.2 1317.0L973.2 1347.5Q973.2 1349.4 973.3 1350.9Q973.4 1352.4 973.4 1353.3L973.4 1353.3ZM966.4 1339.9L966.4 1339.9Q966.4 1337.3 966.0 1335.6Q965.5 1333.9 964.7 1332.8Q963.9 1331.8 962.9 1331.4Q961.9 1331.0 960.8 1331.0L960.8 1331.0Q959.5 1331.0 958.5 1331.5Q957.5 1332.0 956.8 1333.1Q956.1 1334.2 955.7 1336.0Q955.4 1337.7 955.4 1340.1L955.4 1340.1Q955.4 1349.1 960.8 1349.1L960.8 1349.1Q961.8 1349.1 962.8 1348.6Q963.8 1348.2 964.6 1347.1Q965.4 1346.1 965.9 1344.3Q966.4 1342.5 966.4 1339.9ZM993.4 1331.5L988.2 1331.5L988.2 1353.3L981.4 1353.3L981.4 1331.5L977.6 1331.5L977.6 1326.8L981.4 1326.8L981.4 1324.1Q981.4 1322.6 981.8 1321.3Q982.1 1320.0 983.0 1319.1Q983.9 1318.1 985.4 1317.6Q986.9 1317.0 989.1 1317.0L989.1 1317.0Q990.3 1317.0 991.4 1317.2Q992.5 1317.3 993.4 1317.4L993.4 1317.4L993.4 1321.8Q993.0 1321.7 992.5 1321.7Q991.9 1321.6 991.4 1321.6L991.4 1321.6Q990.5 1321.6 989.9 1321.8Q989.2 1322.0 988.9 1322.4Q988.5 1322.8 988.4 1323.4Q988.2 1324.0 988.2 1324.8L988.2 1324.8L988.2 1326.8L993.4 1326.8L993.4 1331.5Z " stroke-width="20px" stroke="black" stroke-linejoin="round" paint-order="stroke"/><path fill="white" d="M869.6 1353.8L869.6 1353.8Q867.7 1353.8 866.2 1353.2Q864.7 1352.7 863.6 1351.7Q862.6 1350.7 862.0 1349.2Q861.5 1347.7 861.5 1345.8L861.5 1345.8Q861.5 1343.4 862.3 1341.9Q863.1 1340.3 864.5 1339.3Q865.9 1338.3 867.8 1337.8Q869.7 1337.4 871.9 1337.3L871.9 1337.3L877.6 1337.2L877.6 1335.9Q877.6 1334.5 877.3 1333.5Q877.1 1332.5 876.6 1331.9Q876.1 1331.3 875.4 1331.1Q874.6 1330.8 873.7 1330.8L873.7 1330.8Q872.9 1330.8 872.2 1331.0Q871.5 1331.1 871.0 1331.6Q870.5 1332.0 870.2 1332.7Q869.9 1333.4 869.8 1334.5L869.8 1334.5L862.7 1334.2Q863.0 1332.5 863.7 1331.0Q864.5 1329.6 865.9 1328.6Q867.3 1327.5 869.3 1326.9Q871.3 1326.4 874.0 1326.4L874.0 1326.4Q876.5 1326.4 878.4 1327.0Q880.3 1327.6 881.7 1328.8Q883.0 1330.0 883.7 1331.8Q884.4 1333.5 884.4 1335.8L884.4 1335.8L884.4 1345.5Q884.4 1346.4 884.5 1347.1Q884.6 1347.8 884.8 1348.3Q885.1 1348.8 885.5 1349.1Q885.9 1349.4 886.6 1349.4L886.6 1349.4Q887.4 1349.4 888.1 1349.2L888.1 1349.2L888.1 1352.9Q887.5 1353.1 887.0 1353.2Q886.5 1353.3 886.0 1353.4Q885.6 1353.5 885.0 1353.5Q884.5 1353.6 883.7 1353.6L883.7 1353.6Q881.1 1353.6 879.9 1352.3Q878.7 1351.0 878.4 1348.6L878.4 1348.6L878.3 1348.6Q876.9 1351.0 874.8 1352.4Q872.6 1353.8 869.6 1353.8ZM877.6 1342.4L877.6 1341.0L874.1 1341.1Q873.0 1341.1 872.0 1341.3Q871.0 1341.4 870.2 1341.8Q869.5 1342.3 869.1 1343.1Q868.6 1343.9 868.6 1345.3L868.6 1345.3Q868.6 1347.1 869.5 1348.1Q870.4 1349.0 871.8 1349.0L871.8 1349.0Q873.1 1349.0 874.2 1348.4Q875.3 1347.8 876.0 1346.9Q876.7 1346.0 877.2 1344.8Q877.6 1343.6 877.6 1342.4L877.6 1342.4ZM913.6 1345.5L913.6 1345.5Q913.6 1347.5 912.8 1349.0Q912.0 1350.5 910.5 1351.5Q909.0 1352.6 906.8 1353.2Q904.6 1353.8 901.7 1353.8L901.7 1353.8Q899.2 1353.8 897.2 1353.4Q895.2 1353.0 893.7 1352.2Q892.1 1351.3 891.1 1350.0Q890.1 1348.6 889.6 1346.7L889.6 1346.7L895.6 1345.8Q895.9 1346.9 896.4 1347.6Q896.9 1348.2 897.7 1348.6Q898.4 1349.0 899.4 1349.1Q900.5 1349.2 901.7 1349.2L901.7 1349.2Q902.9 1349.2 903.9 1349.1Q904.9 1348.9 905.7 1348.6Q906.4 1348.3 906.9 1347.7Q907.3 1347.1 907.3 1346.2L907.3 1346.2Q907.3 1345.2 906.7 1344.6Q906.1 1344.0 905.0 1343.6Q904.0 1343.2 902.6 1342.9Q901.2 1342.6 899.6 1342.3L899.6 1342.3Q897.9 1341.9 896.3 1341.4Q894.7 1340.9 893.4 1340.0Q892.2 1339.1 891.4 1337.8Q890.6 1336.4 890.6 1334.3L890.6 1334.3Q890.6 1332.5 891.3 1331.0Q892.1 1329.5 893.5 1328.5Q894.9 1327.4 897.0 1326.9Q899.1 1326.3 901.8 1326.3L901.8 1326.3Q903.9 1326.3 905.8 1326.7Q907.7 1327.1 909.1 1328.0Q910.6 1328.9 911.6 1330.2Q912.6 1331.6 913.0 1333.5L913.0 1333.5L906.9 1334.1Q906.7 1333.1 906.3 1332.5Q905.8 1331.9 905.2 1331.5Q904.5 1331.2 903.7 1331.0Q902.8 1330.9 901.8 1330.9L901.8 1330.9Q899.4 1330.9 898.1 1331.5Q896.9 1332.1 896.9 1333.6L896.9 1333.6Q896.9 1334.5 897.4 1335.1Q897.9 1335.6 898.8 1335.9Q899.7 1336.3 901.0 1336.6Q902.3 1336.8 903.8 1337.2L903.8 1337.2Q905.6 1337.6 907.4 1338.1Q909.1 1338.6 910.5 1339.5Q911.9 1340.4 912.7 1341.9Q913.6 1343.3 913.6 1345.5ZM942.9 1353.3L936.2 1353.3Q936.2 1353.1 936.1 1352.6Q936.0 1352.1 936.0 1351.4Q935.9 1350.8 935.9 1350.1Q935.9 1349.5 935.9 1349.0L935.9 1349.0L935.8 1349.0Q934.6 1351.5 932.4 1352.6Q930.3 1353.8 927.3 1353.8L927.3 1353.8Q924.8 1353.8 923.0 1352.7Q921.2 1351.7 920.0 1349.9Q918.8 1348.0 918.2 1345.5Q917.7 1343.0 917.7 1340.1L917.7 1340.1Q917.7 1337.1 918.3 1334.6Q918.9 1332.0 920.1 1330.2Q921.4 1328.4 923.3 1327.4Q925.2 1326.4 927.8 1326.4L927.8 1326.4Q929.1 1326.4 930.3 1326.6Q931.5 1326.9 932.5 1327.5Q933.6 1328.0 934.4 1328.9Q935.2 1329.8 935.8 1331.0L935.8 1331.0L935.9 1331.0Q935.9 1330.8 935.8 1330.3Q935.8 1329.8 935.8 1329.2Q935.8 1328.6 935.8 1327.9Q935.8 1327.3 935.8 1326.7L935.8 1326.7L935.8 1317.0L942.7 1317.0L942.7 1347.5Q942.7 1349.4 942.7 1350.9Q942.8 1352.4 942.9 1353.3L942.9 1353.3ZM935.9 1339.9L935.9 1339.9Q935.9 1337.3 935.4 1335.6Q934.9 1333.9 934.1 1332.8Q933.3 1331.8 932.3 1331.4Q931.3 1331.0 930.3 1331.0L930.3 1331.0Q928.9 1331.0 927.9 1331.5Q926.9 1332.0 926.2 1333.1Q925.5 1334.2 925.2 1336.0Q924.8 1337.7 924.8 1340.1L924.8 1340.1Q924.8 1349.1 930.2 1349.1L930.2 1349.1Q931.2 1349.1 932.3 1348.6Q933.3 1348.2 934.1 1347.1Q934.9 1346.1 935.4 1344.3Q935.9 1342.5 935.9 1339.9ZM962.9 1331.5L957.7 1331.5L957.7 1353.3L950.9 1353.3L950.9 1331.5L947.0 1331.5L947.0 1326.8L950.9 1326.8L950.9 1324.1Q950.9 1322.6 951.2 1321.3Q951.6 1320.0 952.5 1319.1Q953.4 1318.1 954.8 1317.6Q956.3 1317.0 958.6 1317.0L958.6 1317.0Q959.7 1317.0 960.9 1317.2Q962.0 1317.3 962.9 1317.4L962.9 1317.4L962.9 1321.8Q962.5 1321.7 961.9 1321.7Q961.4 1321.6 960.9 1321.6L960.9 1321.6Q960.0 1321.6 959.3 1321.8Q958.7 1322.0 958.4 1322.4Q958.0 1322.8 957.9 1323.4Q957.7 1324.0 957.7 1324.8L957.7 1324.8L957.7 1326.8L962.9 1326.8L962.9 1331.5Z " stroke-width="20px" stroke="black" stroke-linejoin="round" paint-order="stroke"/></svg>